<?xml version="1.0" encoding="utf-8"?>
<!-- Generator: Adobe Illustrator 23.0.1, SVG Export Plug-In . SVG Version: 6.00 Build 0)  -->
<svg version="1.1" id="Layer_1" xmlns="http://www.w3.org/2000/svg" xmlns:xlink="http://www.w3.org/1999/xlink" x="0px" y="0px"
	 viewBox="0 0 380.8 281.3" style="enable-background:new 0 0 380.8 281.3;" xml:space="preserve">
<style type="text/css">
	.st0{fill:#E8E9F4;}
	.st1{fill:url(#SVGID_1_);}
	.st2{fill:#3B4C59;}
	.st3{fill:#3C4C59;}
</style>
<path class="st0" d="M371.2,281.6L9.1,281.1c-5.1,0-9.3-4.2-9.3-9.3L0.1,10.3C0.1,5.2,4.2,1,9.4,1l362.1,0.4c5.1,0,9.3,4.2,9.3,9.3
	l-0.3,261.5C380.5,277.4,376.3,281.6,371.2,281.6z"/>
<linearGradient id="SVGID_1_" gradientUnits="userSpaceOnUse" x1="188.161" y1="256.8727" x2="188.161" y2="477.1392" gradientTransform="matrix(1 1.153214e-03 1.153214e-03 -1 1.6596 538.0477)">
	<stop  offset="0" style="stop-color:#FFFFFF"/>
	<stop  offset="0.2985" style="stop-color:#E5EDF6"/>
	<stop  offset="0.5744" style="stop-color:#D5E1F1"/>
	<stop  offset="0.7849" style="stop-color:#CFDDEF"/>
</linearGradient>
<polygon class="st1" points="356.7,137.4 356.7,122.2 340.2,122.1 340.2,100.3 313.4,100.3 313.4,113.3 299.1,113.3 299.2,61.3 
	242.5,61.2 242.5,94 228.1,94 228.1,71.2 169.2,71.1 169.2,93.9 138.2,93.9 138.2,61.1 81.6,61 81.5,113 67.2,113 67.3,100 
	40.5,100 40.4,121.8 23.9,121.8 23.9,137 -0.1,136.9 -0.3,281.1 23.7,281.2 28.3,281.2 40.3,281.2 56.8,281.2 67.1,281.2 
	81.3,281.2 95.6,281.2 138,281.3 168.9,281.3 211.3,281.4 227.9,281.4 242.3,281.4 284.7,281.5 298.9,281.5 313.2,281.5 
	323.5,281.5 340,281.5 352,281.5 356.5,281.5 380.5,281.6 380.7,137.4 "/>
<g>
	<g>
		<g>
			<polygon class="st2" points="263,138 263,95.9 222.9,95.9 222.9,81.7 263,81.7 263,39.9 277.9,39.9 277.9,81.7 318.1,81.7 
				318.1,95.9 277.9,95.9 277.9,138 			"/>
			<path class="st3" d="M276.2,41.7v41.8h40.2v10.7h-40.2v42.1h-11.4V94.1h-40.2V83.4h40.2V41.7H276.2 M279.7,38.1h-3.5h-11.4h-3.5
				v3.5v38.2h-36.6h-3.5v3.5v10.7v3.5h3.5h36.6v38.6v3.5h3.5h11.4h3.5v-3.5V97.6h36.6h3.5v-3.5V83.4v-3.5h-3.5h-36.6V41.7V38.1
				L279.7,38.1z"/>
		</g>
	</g>
	<path class="st2" d="M260,249.8c-16.7,0-33.1,0-49.7,0c0-28.8,0-57.5,0-86.3c-19.6,0-38.9,0-58.4,0c0,28.8,0,57.4,0,86.3
		c-16.7,0-33.2,0-49.9,0c0-4.1,0-8.2,0-12.3c0-24.4,0-48.8,0.1-73.3c0-1.1,0.6-2.7,1.4-3.4c25.4-20.8,51-41.6,76.5-62.4
		c0.3-0.3,0.7-0.5,1.2-0.9c5,4.1,10,8.1,15,12.2c20.8,17,41.6,33.9,62.4,50.9c0.8,0.7,1.6,2,1.6,3.1c0.1,28.2,0,56.4,0,84.6
		C260.1,248.8,260,249.2,260,249.8z"/>
	<path class="st2" d="M285.8,134.8v8.6h-8.6h-11.4h-8.6v-8.6v-24.4c-3.8-3.1-7.5-6.1-11.3-9.2h-20.3h-8.6v-8.6V82v-4.3
		c-12-9.8-24.1-19.6-36.2-29.4c-38.9,31.7-77.7,63.3-116.7,95c6.8,8.3,13.4,16.5,20.1,24.7c32.4-26.4,64.5-52.6,96.6-78.8
		c32.3,26.3,64.4,52.5,96.7,78.7c6.8-8.3,13.4-16.4,20.1-24.7c-4-3.2-7.9-6.5-11.9-9.7V134.8z"/>
</g>
</svg>
