<?xml version="1.0" encoding="utf-8"?>
<!-- Generator: Adobe Illustrator 23.0.1, SVG Export Plug-In . SVG Version: 6.00 Build 0)  -->
<svg version="1.1" id="Layer_1" xmlns="http://www.w3.org/2000/svg" xmlns:xlink="http://www.w3.org/1999/xlink" x="0px" y="0px"
	 viewBox="0 0 380.8 281.3" style="enable-background:new 0 0 380.8 281.3;" xml:space="preserve">
<style type="text/css">
	.st0{fill:#E8E9F4;}
	.st1{fill:url(#SVGID_1_);}
	.st2{fill:#3B4C59;}
</style>
<path class="st0" d="M371.2,281.6L9.1,281.1c-5.1,0-9.3-4.2-9.3-9.3L0.1,10.3C0.1,5.2,4.2,1,9.4,1l362.1,0.4c5.1,0,9.3,4.2,9.3,9.3
	l-0.3,261.5C380.5,277.4,376.3,281.6,371.2,281.6z"/>
<linearGradient id="SVGID_1_" gradientUnits="userSpaceOnUse" x1="188.161" y1="256.8727" x2="188.161" y2="477.1392" gradientTransform="matrix(1 1.153214e-03 1.153214e-03 -1 1.6596 538.0477)">
	<stop  offset="0" style="stop-color:#FFFFFF"/>
	<stop  offset="0.2985" style="stop-color:#E5EDF6"/>
	<stop  offset="0.5744" style="stop-color:#D5E1F1"/>
	<stop  offset="0.7849" style="stop-color:#CFDDEF"/>
</linearGradient>
<polygon class="st1" points="356.7,137.4 356.7,122.2 340.2,122.1 340.2,100.3 313.4,100.3 313.4,113.3 299.1,113.3 299.2,61.3 
	242.5,61.2 242.5,94 228.1,94 228.1,71.2 169.2,71.1 169.2,93.9 138.2,93.9 138.2,61.1 81.6,61 81.5,113 67.2,113 67.3,100 
	40.5,100 40.4,121.8 23.9,121.8 23.9,137 -0.1,136.9 -0.3,281.1 23.7,281.2 28.3,281.2 40.3,281.2 56.8,281.2 67.1,281.2 
	81.3,281.2 95.6,281.2 138,281.3 168.9,281.3 211.3,281.4 227.9,281.4 242.3,281.4 284.7,281.5 298.9,281.5 313.2,281.5 
	323.5,281.5 340,281.5 352,281.5 356.5,281.5 380.5,281.6 380.7,137.4 "/>
<g>
	<g>
		<path class="st2" d="M257.1,238.9c-14.1,0-28.2,0-42.3,0c-10.9,0-18.4-7.3-18.5-18.3c-0.1-7.1-0.1-14.2,0-21.3
			c0-4.2,1.5-5.7,5.6-5.7c2,0,4,0,6.1,0c4.1,0.1,5.6,1.5,5.6,5.7c0.1,3.6,0,7.2,0,10.8c0.1,7.5,3.4,10.8,10.8,10.8
			c21.9,0,43.8,0,65.7,0c7.1,0,10.6-3.5,10.6-10.4c0.1-3.8,0-7.6,0-11.3c0.1-4,1.5-5.5,5.5-5.6c2.4,0,4.8-0.1,7.2,0
			c2.7,0.1,4.5,1.6,4.5,4.2c0.1,8.6,0.3,17.1-0.3,25.6c-0.7,9-8.3,15.3-17.2,15.4C286,238.9,271.6,238.9,257.1,238.9z"/>
		<path class="st2" d="M248.6,152.5c-6.6,6.8-12.7,13.1-18.7,19.4c-4.1,4.3-5.6,4.3-9.7,0.1c-1.5-1.5-3-3-4.4-4.6
			c-2.2-2.4-2.2-4.8-0.1-7.1c11.7-12.3,23.4-24.5,35.2-36.7c3.3-3.4,9.2-3.4,12.5,0c11.8,12.2,23.5,24.4,35.2,36.6
			c2.2,2.3,2,4.8-0.1,7.1c-1.8,2-3.6,3.9-5.5,5.8c-2.5,2.5-4.9,2.5-7.3-0.1c-5.7-6-11.5-11.9-17.2-17.9c-0.7-0.7-1.2-1.6-1.8-2.4
			c-0.3,0.1-0.6,0.2-0.8,0.4c0,0.9,0,1.9,0,2.9c0,13.7,0,27.5,0,41.2c0,4-1.4,5.5-5.4,5.5c-2.2,0.1-4.4,0.1-6.6,0
			c-3.7-0.1-5.1-1.6-5.1-5.2c0-13.8,0-27.6,0-41.4C248.6,155.1,248.6,154.2,248.6,152.5z"/>
	</g>
	<path class="st2" d="M255.9,244.1h-42.3c-13.7,0-23.4-9.6-23.5-23.2c-0.1-7.1-0.1-14.4,0-21.3c0-6.9,3.7-10.7,10.6-10.7l0,0h0h6.1
		h0l0,0c6.8,0.1,10.5,3.8,10.6,10.7c0,2.4,0,4.9,0,7.3c0,1.2,0,2.4,0,3.5c0,4.7,1.2,5.9,5.8,5.9h45.6c-0.1-3.8-1.6-5.8-5.2-7.2
		c-1-0.4-1.9-0.7-2.9-1.1c-0.5,0-1,0.1-1.5,0.1c-1.1,0-2.3,0-3.4,0c-1.1,0-2.3,0-3.5,0c-5.2-0.2-8.5-2.6-9.6-7
		c-13.6-5.5-27.2-11.1-40.8-16.8c-3.9-1.7-6.7-4.6-7.1-9c-0.5-6,0.5-11.5,4.1-16.8c4-6,7-12.6,10.4-19c0.4-0.8,0.8-1.8,1.5-2.3
		c7-5.4,8.6-13,8.3-21.2c-0.1-1.7-1-4-2.3-4.7c-2.4-1.4-2.3-3.2-2.3-5.3c0.2-8.2,0.2-16.4-2.2-24.4c-4.8-15.5-18.3-25.4-36.2-26.4
		c-24.5-1.4-41.5,13.3-43.4,37.8c-0.4,4.6-0.3,9.3-0.3,14c0,1.7-0.3,2.9-1.9,4c-1.2,0.9-2.4,2.7-2.5,4.2c-0.5,8.4,0.9,16.2,8.1,21.8
		c0.5,0.4,1,0.9,1.2,1.5c2.9,8.4,8,15.6,12.5,23.1c4.6,7.7,4.9,20.1-7.1,23.9c-1.3,0.4-2.5,1.1-3.7,1.6
		c-18.3,7.2-36.6,14.5-54.9,21.7c-4.5,1.8-5.8,3.6-5.8,8.4c0,7.7,0,15.5,0,23.2c0,6.9,2.6,9.5,9.5,9.5c28.5,0,57.1,0,85.7,0
		c28.7,0,57.3,0,86.2,0.1c5,0,7.8-1.8,8.7-5.8C264.3,244.1,260.1,244.1,255.9,244.1z"/>
</g>
</svg>
