<?xml version="1.0" encoding="utf-8"?>
<!-- Generator: Adobe Illustrator 23.0.1, SVG Export Plug-In . SVG Version: 6.00 Build 0)  -->
<svg version="1.1" id="Layer_1" xmlns="http://www.w3.org/2000/svg" xmlns:xlink="http://www.w3.org/1999/xlink" x="0px" y="0px"
	 viewBox="0 0 381.1 280.5" style="enable-background:new 0 0 381.1 280.5;" xml:space="preserve">
<style type="text/css">
	.st0{fill:#E8E9F4;}
	.st1{fill:url(#SVGID_1_);}
	.st2{fill:#3B4C59;}
</style>
<path class="st0" d="M371.5,280.5L9.3,280.1c-5.1,0-9.3-4.2-9.3-9.3L0.3,9.3C0.3,4.2,4.5,0,9.6,0l362.1,0.4c5.1,0,9.3,4.2,9.3,9.3
	l-0.3,261.5C380.8,276.4,376.6,280.5,371.5,280.5z"/>
<linearGradient id="SVGID_1_" gradientUnits="userSpaceOnUse" x1="188.5316" y1="289.1838" x2="188.5316" y2="68.9661" gradientTransform="matrix(1 1.153214e-03 -1.153214e-03 1 2.1828 -9.0936)">
	<stop  offset="0" style="stop-color:#FFFFFF"/>
	<stop  offset="0.2985" style="stop-color:#E5EDF6"/>
	<stop  offset="0.5744" style="stop-color:#D5E1F1"/>
	<stop  offset="0.7849" style="stop-color:#CFDDEF"/>
</linearGradient>
<polygon class="st1" points="356.9,136.3 356.9,121.1 340.4,121.1 340.5,99.3 313.7,99.3 313.6,112.3 299.4,112.3 299.5,60.2 
	242.8,60.2 242.7,92.9 228.3,92.9 228.4,70.1 169.4,70 169.4,92.9 138.5,92.8 138.5,60 81.8,60 81.8,112 67.5,112 67.5,99 
	40.7,98.9 40.7,120.7 24.2,120.7 24.2,135.9 0.2,135.9 0,280.1 24,280.1 28.5,280.1 40.5,280.1 57,280.2 67.3,280.2 81.6,280.2 
	95.8,280.2 138.2,280.2 169.2,280.3 211.6,280.3 228.1,280.4 242.5,280.4 284.9,280.4 299.2,280.4 313.5,280.4 323.7,280.5 
	340.2,280.5 352.2,280.5 356.8,280.5 380.8,280.5 380.9,136.3 "/>
<g>
	<path class="st2" d="M276,250.1H105c-10,0-18.1-8.2-18.1-18.1v-70.6c0-10,8.2-18.1,18.1-18.1h171c10,0,18.1,8.2,18.1,18.1V232
		C294.2,241.9,286,250.1,276,250.1z"/>
	<circle class="st2" cx="190.5" cy="72.9" r="17.4"/>
	<path class="st2" d="M97.1,154.9L97.1,154.9c-2.8-2.8-2.8-7.4,0-10.1l55-55c2.8-2.8,7.4-2.8,10.1,0l0,0c2.8,2.8,2.8,7.4,0,10.1
		l-55,55C104.4,157.7,99.9,157.7,97.1,154.9z"/>
	<path class="st2" d="M284,154.9L284,154.9c2.8-2.8,2.8-7.4,0-10.1l-55-55c-2.8-2.8-7.4-2.8-10.1,0l0,0c-2.8,2.8-2.8,7.4,0,10.1
		l55,55C276.6,157.7,281.2,157.7,284,154.9z"/>
</g>
</svg>
