<?xml version="1.0" encoding="utf-8"?>
<!-- Generator: Adobe Illustrator 23.0.1, SVG Export Plug-In . SVG Version: 6.00 Build 0)  -->
<svg version="1.1" id="Layer_1" xmlns="http://www.w3.org/2000/svg" xmlns:xlink="http://www.w3.org/1999/xlink" x="0px" y="0px"
	 viewBox="0 0 8.6 8.6" style="enable-background:new 0 0 8.6 8.6;" xml:space="preserve">
<style type="text/css">
	.st0{fill:#3B4C59;}
	.st1{fill:#9ACAEC;}
</style>
<g>
	<path class="st0" d="M1.2,1C1.2,1.1,1.2,1.1,1.2,1c0,0.4,0,0.6,0,0.9c0,0.3,0.1,0.4,0.4,0.5c0.2,0.1,0.5,0,0.6-0.1
		c0.1-0.1,0.2-0.3,0.2-0.4c0-0.3,0-0.5,0-0.8c0,0,0-0.1,0-0.1c1.3,0,2.6,0,3.9,0c0,0,0,0.1,0,0.1c0,0.3,0,0.5,0,0.8
		c0,0.3,0.2,0.5,0.5,0.6c0.3,0,0.6-0.2,0.6-0.5c0-0.1,0-0.1,0-0.2c0-0.3,0-0.5,0-0.8c0,0,0,0,0-0.1c0.1,0,0.3,0,0.4,0
		c0.5,0.1,0.8,0.6,0.8,1.1c0,1.4,0,2.8,0,4.1c0,0.4,0,0.8,0,1.2c0,0.6-0.4,1-1,1.1c-0.1,0-0.1,0-0.2,0c-2.1,0-4.2,0-6.3,0
		C0.5,8.6,0,8.2,0,7.5c0-1.8,0-3.6,0-5.3C0,1.6,0.5,1.1,1.2,1C1.1,1,1.1,1,1.2,1z M8.1,3.2c-2.5,0-5,0-7.5,0c0,0,0,0.1,0,0.1
		c0,1.4,0,2.8,0,4.2c0,0.4,0.2,0.6,0.6,0.6c2.1,0,4.1,0,6.2,0c0.4,0,0.6-0.2,0.6-0.6C8.1,6.1,8.1,4.7,8.1,3.2
		C8.1,3.2,8.1,3.2,8.1,3.2z"/>
	<g>
		<path class="st1" d="M6.8,0C6.6,0,6.4,0.2,6.4,0.4c0,0.5,0,1,0,1.5c0,0.2,0.2,0.4,0.4,0.4c0,0,0,0,0,0c0.2,0,0.4-0.2,0.4-0.4
			c0-0.2,0-0.5,0-0.7c0-0.3,0-0.5,0-0.8C7.3,0.2,7.1,0,6.8,0C6.8,0,6.8,0,6.8,0L6.8,0z"/>
	</g>
	<g>
		<path class="st1" d="M1.8,0C1.5,0,1.3,0.2,1.3,0.4c0,0.2,0,0.5,0,0.7c0,0.2,0,0.5,0,0.7c0,0.3,0.2,0.4,0.4,0.5c0,0,0,0,0,0
			c0.2,0,0.4-0.2,0.4-0.4c0-0.5,0-1,0-1.5C2.2,0.2,2,0,1.8,0C1.8,0,1.8,0,1.8,0L1.8,0z"/>
	</g>
	<g>
		<path class="st1" d="M3.4,6.7c-0.3,0-0.6,0-0.8,0c0,0.3,0,0.5,0,0.8c0.3,0,0.6,0,0.8,0C3.4,7.2,3.4,6.9,3.4,6.7L3.4,6.7z"/>
	</g>
	<g>
		<path class="st1" d="M4.7,5.3c-0.3,0-0.6,0-0.8,0c0,0.3,0,0.5,0,0.8c0.3,0,0.6,0,0.8,0C4.7,5.9,4.7,5.6,4.7,5.3L4.7,5.3z"/>
	</g>
	<g>
		<path class="st1" d="M7.4,5.3c-0.3,0-0.6,0-0.8,0c0,0.3,0,0.5,0,0.8c0.3,0,0.6,0,0.8,0C7.4,5.9,7.4,5.6,7.4,5.3L7.4,5.3z"/>
	</g>
	<g>
		<path class="st1" d="M2.1,6.7c-0.3,0-0.6,0-0.8,0c0,0.3,0,0.5,0,0.8c0.3,0,0.6,0,0.8,0C2.1,7.2,2.1,6.9,2.1,6.7L2.1,6.7z"/>
	</g>
	<g>
		<path class="st1" d="M4.7,6.7c-0.3,0-0.6,0-0.8,0c0,0.3,0,0.5,0,0.8c0.3,0,0.6,0,0.8,0C4.7,7.2,4.7,6.9,4.7,6.7L4.7,6.7z"/>
	</g>
	<g>
		<path class="st1" d="M6.1,6.7c-0.3,0-0.6,0-0.8,0c0,0.3,0,0.5,0,0.8c0.3,0,0.6,0,0.8,0C6.1,7.2,6.1,6.9,6.1,6.7L6.1,6.7z"/>
	</g>
	<g>
		<path class="st1" d="M2.1,5.3c-0.3,0-0.6,0-0.8,0c0,0.3,0,0.5,0,0.8c0.3,0,0.6,0,0.8,0C2.1,5.9,2.1,5.6,2.1,5.3L2.1,5.3z"/>
	</g>
	<g>
		<path class="st1" d="M5.3,4C5.2,4,5.2,4,5.3,4C5.2,4.3,5.2,4.5,5.2,4.8c0,0,0,0,0,0.1c0.3,0,0.6,0,0.8,0c0-0.3,0-0.5,0-0.8
			c0,0,0,0-0.1,0c0,0,0,0,0,0C5.8,4,5.7,4,5.6,4C5.5,4,5.4,4,5.3,4C5.3,4,5.3,4,5.3,4L5.3,4z"/>
	</g>
	<g>
		<path class="st1" d="M3.4,5.3c-0.3,0-0.6,0-0.8,0c0,0.3,0,0.5,0,0.8c0.3,0,0.6,0,0.8,0C3.4,5.9,3.4,5.6,3.4,5.3L3.4,5.3z"/>
	</g>
	<g>
		<path class="st1" d="M6.1,5.3c-0.3,0-0.6,0-0.8,0c0,0.3,0,0.5,0,0.8c0.3,0,0.6,0,0.8,0C6.1,5.9,6.1,5.6,6.1,5.3L6.1,5.3z"/>
	</g>
	<g>
		<path class="st1" d="M4.7,4C4.4,4,4.1,4,3.9,4c0,0.3,0,0.5,0,0.8c0.3,0,0.6,0,0.8,0C4.7,4.5,4.7,4.3,4.7,4L4.7,4z"/>
	</g>
	<g>
		<path class="st1" d="M7.4,4C7.1,4,6.9,4,6.6,4c0,0.3,0,0.5,0,0.8c0.3,0,0.6,0,0.8,0C7.4,4.6,7.4,4.3,7.4,4L7.4,4z"/>
	</g>
</g>
</svg>
