<?xml version="1.0" encoding="utf-8"?>
<!-- Generator: Adobe Illustrator 23.0.1, SVG Export Plug-In . SVG Version: 6.00 Build 0)  -->
<svg version="1.1" id="Layer_1" xmlns="http://www.w3.org/2000/svg" xmlns:xlink="http://www.w3.org/1999/xlink" x="0px" y="0px"
	 viewBox="0 0 62.9 50.9" style="enable-background:new 0 0 62.9 50.9;" xml:space="preserve">
<style type="text/css">
	.st0{fill:#3C4D59;}
	.st1{fill:#9ACAEC;}
</style>
<g>
	<g>
		<path class="st0" d="M51.6,40L45,33.3c-0.3-0.3-0.9-0.3-1.2,0l-5.4,5.4c-0.3,0.3-0.3,0.9,0,1.2l6.6,6.6c0.3,0.3,0.9,0.3,1.2,0
			l5.4-5.4C51.9,40.9,51.9,40.3,51.6,40z"/>
		<path class="st0" d="M54.9,45c-0.6-0.9-1.1-1.7-1.6-2.6c-0.1-0.2-0.2-0.3-0.4-0.5c-2.2,1.9-4.2,4-6.2,6.2c1.1,0.7,2.2,1.4,3.3,2
			c0.1,0,0.2,0,0.3-0.1c1.5-1.5,3-3,4.5-4.5C54.9,45.3,55,45.2,54.9,45z"/>
	</g>
	<g>
		<path class="st1" d="M40.9,34.1l0,0.8l-0.9-0.9l0.1,1.4l-1.3-0.6l0.2,1.4l-1.3-0.7l-0.1,1.8l-1.2-0.9l0,1.6l-1.1-0.7l-0.1,1.5
			l-1.3-0.4l0,0.5c0,0.2,0,0.3,0,0.5c-0.4-0.1-0.8-0.2-1.2-0.4c0,0.4,0,0.8,0,1.2c-0.4-0.2-0.8-0.3-1.2-0.5c0,0.4,0,0.8-0.1,1.2
			c-0.4-0.2-0.8-0.3-1.2-0.5c0,0.4,0,0.8,0.1,1.3c-0.4-0.2-0.8-0.3-1.2-0.5c0,0.3,0,0.6,0,0.9c0,0.2-0.1,0.3-0.3,0.2
			c-0.3-0.1-0.6-0.2-0.9-0.4c0,0.4,0,0.8,0,1.2c-0.4-0.1-0.8-0.3-1.2-0.4c0,0.4,0,0.8,0.1,1.2c-0.4-0.2-0.8-0.3-1.2-0.5
			c0,0.4,0,0.8,0,1.2c-0.4-0.2-0.8-0.3-1.2-0.5c0,0.4,0,0.8,0,1.2c-0.4-0.2-0.8-0.3-1.2-0.5c0,0.4,0,0.8,0,1.2
			c-0.4-0.2-0.8-0.3-1.2-0.5c0,0.4,0,0.8-0.1,1.2c-0.4-0.1-0.7-0.2-1.1-0.4c0,0.4,0,0.8,0.1,1.2c-0.4-0.2-0.8-0.3-1.2-0.5
			c0,0.5,0,0.8,0,1.2c-0.4-0.2-0.8-0.3-1.2-0.5c0,0.4,0,0.8,0,1.2c-0.4-0.2-0.8-0.3-1.2-0.5c0,0.4,0,0.8,0,1.2
			c-0.4-0.2-0.8-0.3-1.2-0.5c0,0.4-0.1,0.8-0.1,1.2c-0.8-0.2-1.5-0.4-2.2-0.7c-0.1,0-0.1-0.1-0.1-0.1c-0.5-0.8-1.1-1.5-1.6-2.3
			c-0.3-0.5-0.3-0.9,0.1-1.4c3.7-4.5,7.3-9.1,10.9-13.6c0.7-0.9,1.4-1.9,2.2-2.8l4.9-5.9c1.9-2.4,3.8-4.7,5.7-7.1
			c1.6,1.4,2.9,2.9,4.4,4.4c0.2-0.1,0.4-0.3,0.6-0.4c1-0.5,2.3-0.4,3.2,0.3c0.6,0.6,1.3,1.1,1.9,1.7c1,0.9,2.1,1.1,3.4,0.4
			c0.7-0.4,1.5-0.7,2.4-0.5c0.4,0.1,0.8,0.3,1.1,0.5c0.4,0.4,0.7,0.8,1.1,1.3c0.3,0.4,0.3,1.1,0.1,1.6c-0.3-0.1-0.7-0.3-1.1-0.5
			c0,0.4,0,0.8,0,1.3c-0.4-0.2-0.8-0.3-1.2-0.5c0,0.5,0,0.9,0.1,1.3c-0.4-0.2-0.7-0.3-1.2-0.5c0,0.4-0.1,0.8-0.1,1.2
			c-0.4-0.2-0.8-0.3-1.2-0.5c0,0.4,0,0.8,0,1.3c-0.4-0.2-0.8-0.3-1.2-0.5c0,0.4,0,0.8,0,1.3c-0.4-0.2-0.8-0.3-1.2-0.5
			c0,0.4-0.1,0.8-0.1,1.2c-0.4-0.2-0.8-0.3-1.2-0.5c0,0.4,0.1,0.9,0.1,1.3c-0.4-0.2-0.7-0.3-1.2-0.5c0,0.4-0.1,0.8-0.1,1.2
			c-0.4-0.2-0.7-0.3-1.1-0.5c0,0.4-0.1,0.8-0.1,1.2c-0.4-0.2-0.7-0.3-1.1-0.5c0,0.4,0,0.8,0,1.3c-0.4-0.2-0.8-0.3-1.1-0.5
			 M13.7,46.8c0,0.7,0.5,1.2,1.1,1.2c0.7,0,1.2-0.5,1.2-1.1c0-0.6-0.5-1.2-1.1-1.2C14.2,45.7,13.7,46.1,13.7,46.8z"/>
		<path class="st1" d="M62.9,14.6c-0.6,0.6-1.1,1.1-1.7,1.7c-1.7,1.8-3.5,3.5-5.2,5.3c-0.6,0.6-1.3,0.9-2.2,0.8
			c-0.6,0-1.3-0.1-1.9-0.2c-1-0.2-1.9-0.1-2.8,0.4c-1,0.6-1.9,0.4-2.7-0.3c-0.6-0.5-1.1-1-1.7-1.5c-1.2-1.1-2.6-1.2-4-0.7
			c-0.3,0.1-0.5,0.1-0.7-0.2c-1.2-1.3-2.5-2.6-3.7-3.9c-0.2-0.2-0.2-0.4,0-0.6c1.7-1.9,3.3-3.8,5-5.6c0.2-0.2,0.6-0.4,0.9-0.4
			c0.6-0.1,1.1-0.3,1.5-0.7c1.6-1.7,3.3-3.4,4.9-5.1c1.1-1.1,2.1-2.2,3.1-3.4C51.7,0.3,51.8,0.2,52,0c0.1,0.2,0.2,0.4,0.2,0.6
			c0.1,0.4,0.2,0.8,0.2,1.2c-0.1,2,0.7,3.6,1.8,5.2c1.7,2.2,3.6,4.2,5.5,6.2c0.4,0.4,1,0.7,1.6,0.7C62,13.9,62.4,14.1,62.9,14.6z
			 M48.2,8c-0.9,0-1.7,0.4-2.3,1.1c-0.5,0.7-0.6,2-0.2,2.5c2.2,2.5,4.3,5,6.5,7.4c1,1.1,2.2,1.1,3.3,0.2c1.1-0.9,1.3-2.3,0.4-3.4
			c-2.1-2.4-4.3-4.9-6.4-7.3C49.2,8.2,48.8,8,48.2,8z M40.7,14.7c-0.3-0.8-1.4-1-1.9-0.3c-0.1,0.1-0.2,0.3,0,0.4
			C39.5,14.9,40.1,14.9,40.7,14.7z M40.7,15.1c-0.5,0-1.1,0-1.6,0c-0.1,0-0.3,0.1-0.4,0.1c0.1,0.1,0.1,0.3,0.2,0.4
			C39.5,16.2,40.4,16,40.7,15.1z M46.2,19.4c0.7,0.2,1.2,0.1,1.8,0c0.2,0,0.2-0.2,0.1-0.4c-0.2-0.3-0.5-0.5-0.9-0.4
			C46.8,18.7,46.5,19,46.2,19.4z M46.3,20c0.3,0.6,0.6,0.8,1,0.7c0.4,0,0.8-0.3,0.9-0.7C47.6,20,47,20,46.3,20z"/>
		<line x1="33.8" y1="38.8" x2="33.8" y2="38"/>
	</g>
	<path class="st0" d="M31,20.5l-2.3-2.3c-0.4-0.4-1.2-0.4-1.6,0l-0.6,0.6c-2.3-2.4-4.7-4.7-7-7c0.1-0.1,0.3-0.3,0.4-0.5
		c0.6-0.6,0.6-0.9,0.1-1.6c-0.4-0.5-0.8-1-1.2-1.5c-0.4-0.5-0.8-1.1-1.1-1.6c-0.4-0.8-0.2-1.3,0.4-1.8c0.7-0.6,1.6-0.9,2.5-1.1
		c2.3-0.5,4.7-0.4,7-0.2c0.8,0.1,1.5,0.2,2.3,0.3c0.3,0,0.4-0.1,0.4-0.3c0-0.2,0-0.5,0-0.7c0-0.3-0.1-0.4-0.4-0.5
		c-4.1-1.2-8.4-1.5-12.7-1c-1.5,0.2-3,0.5-4.3,1.3C11.1,3.6,9.4,5,7.7,6.5C6.7,7.4,6.1,8.4,6,9.8c0,0.7-0.2,1.3-0.6,1.9
		c-0.7,1-1.7,1.5-2.8,1.7c-0.3,0.1-0.6,0.2-0.9,0.4c-0.6,0.5-1,1.1-1.6,1.6c-0.2,0.3-0.2,0.5,0,0.7c1.4,1.3,2.7,2.7,4.1,4
		c0.3,0.3,0.5,0.2,0.8,0c0.6-0.5,1.1-1.1,1.7-1.6c0.2-0.2,0.3-0.4,0.3-0.6c0-1.1,0.3-2.1,1-2.9c0.3-0.4,0.7-0.8,1.1-1.2
		c0.6-0.6,1.3-0.8,2.1-0.6c1,0.2,1.9,0.8,2.8,1.4c0.3,0.2,0.5,0.4,0.8,0.6c0.5,0.3,0.9,0.2,1.3-0.1c0.1-0.1,0.2-0.1,0.2-0.2
		c2.3,2.3,4.6,4.6,7,7l-0.8,0.8c-0.4,0.4-0.4,1.2,0,1.6l2.3,2.3c0.2,0.2,0.4,0.3,0.7,0.3c0,0.1,0,0.1,0,0.1l0.1-0.1
		c0.3,0,0.6-0.1,0.8-0.3L31,22C31.4,21.6,31.4,20.9,31,20.5z"/>
</g>
</svg>
