<?xml version="1.0" encoding="utf-8"?>
<!-- Generator: Adobe Illustrator 23.0.1, SVG Export Plug-In . SVG Version: 6.00 Build 0)  -->
<svg version="1.1" id="Layer_1" xmlns="http://www.w3.org/2000/svg" xmlns:xlink="http://www.w3.org/1999/xlink" x="0px" y="0px"
	 viewBox="0 0 381.1 280.5" style="enable-background:new 0 0 381.1 280.5;" xml:space="preserve">
<style type="text/css">
	.st0{fill:#E8E9F4;}
	.st1{fill:url(#SVGID_1_);}
	.st2{fill:#3B4C59;}
</style>
<path class="st0" d="M371.5,280.5L9.3,280.1c-5.1,0-9.3-4.2-9.3-9.3L0.3,9.3C0.3,4.2,4.5,0,9.6,0l362.1,0.4c5.1,0,9.3,4.2,9.3,9.3
	l-0.3,261.5C380.8,276.4,376.6,280.5,371.5,280.5z"/>
<linearGradient id="SVGID_1_" gradientUnits="userSpaceOnUse" x1="188.5316" y1="289.1838" x2="188.5316" y2="68.9661" gradientTransform="matrix(1 1.153214e-03 -1.153214e-03 1 2.1828 -9.0936)">
	<stop  offset="0" style="stop-color:#FFFFFF"/>
	<stop  offset="0.2985" style="stop-color:#E5EDF6"/>
	<stop  offset="0.5744" style="stop-color:#D5E1F1"/>
	<stop  offset="0.7849" style="stop-color:#CFDDEF"/>
</linearGradient>
<polygon class="st1" points="356.9,136.3 356.9,121.1 340.4,121.1 340.5,99.3 313.7,99.3 313.6,112.3 299.4,112.3 299.5,60.2 
	242.8,60.2 242.7,92.9 228.3,92.9 228.4,70.1 169.4,70 169.4,92.9 138.5,92.8 138.5,60 81.8,60 81.8,112 67.5,112 67.5,99 
	40.7,98.9 40.7,120.7 24.2,120.7 24.2,135.9 0.2,135.9 0,280.1 24,280.1 28.5,280.1 40.5,280.1 57,280.2 67.3,280.2 81.6,280.2 
	95.8,280.2 138.2,280.2 169.2,280.3 211.6,280.3 228.1,280.4 242.5,280.4 284.9,280.4 299.2,280.4 313.5,280.4 323.7,280.5 
	340.2,280.5 352.2,280.5 356.8,280.5 380.8,280.5 380.9,136.3 "/>
<g>
	<path class="st2" d="M298.3,110.6l-10.8-10.8c-1.2-1.2-3.1-1.2-4.3,0L260,123c-1.2,1.2-1.2,3.1,0,4.3l10.8,10.8
		c0.7,0.7,1.6,0.9,2.4,0.9l0,0l23.8-1.2c0,0,1.6,0.2,2-2.3l0.1-22.6l0,0C299.2,112.1,299,111.3,298.3,110.6z"/>
	<path class="st2" d="M212.1,159.3c-1.4,1.4-3.2,2.4-5.1,2.9c4.8,9.1,7.5,19.5,7.5,30.6c0,36.6-29.7,66.3-66.3,66.3
		c-36.6,0-66.3-29.7-66.3-66.3c0-36.6,29.7-66.3,66.3-66.3c10.5,0,20.5,2.5,29.4,6.9c0.4-2,1.4-4,3-5.5l67.9-67.9
		c4.3-4.3,11.4-4.3,15.7,0l15.9,15.9c4.3,4.3,4.3,11.4,0,15.7L212.1,159.3z M148.2,169.1c-13.1,0-23.7,10.6-23.7,23.7
		s10.6,23.7,23.7,23.7s23.7-10.6,23.7-23.7S161.3,169.1,148.2,169.1z"/>
</g>
</svg>
