<?xml version="1.0" encoding="utf-8"?>
<!-- Generator: Adobe Illustrator 23.0.1, SVG Export Plug-In . SVG Version: 6.00 Build 0)  -->
<svg version="1.1" id="Layer_1" xmlns="http://www.w3.org/2000/svg" xmlns:xlink="http://www.w3.org/1999/xlink" x="0px" y="0px"
	 viewBox="0 0 380.7 281.3" style="enable-background:new 0 0 380.7 281.3;" xml:space="preserve">
<style type="text/css">
	.st0{fill:#E8E9F4;}
	.st1{fill:url(#SVGID_1_);}
	.st2{fill:#3B4C59;}
</style>
<g>
	<path class="st0" d="M371.2,281.6L9.1,281.1c-5.1,0-9.3-4.2-9.3-9.3L0.1,10.3C0.1,5.2,4.2,1,9.4,1l362.1,0.4c5.1,0,9.3,4.2,9.3,9.3
		l-0.3,261.5C380.5,277.4,376.3,281.6,371.2,281.6z"/>
	
		<linearGradient id="SVGID_1_" gradientUnits="userSpaceOnUse" x1="188.2803" y1="290.2239" x2="188.2803" y2="70.0062" gradientTransform="matrix(1 1.153214e-03 -1.153214e-03 1 2.1846 -9.0934)">
		<stop  offset="0" style="stop-color:#FFFFFF"/>
		<stop  offset="0.1339" style="stop-color:#F7F8FB"/>
		<stop  offset="0.5029" style="stop-color:#E7E8F3"/>
		<stop  offset="0.7849" style="stop-color:#E1E3F0"/>
	</linearGradient>
	<polygon class="st1" points="356.7,137.4 356.7,122.2 340.2,122.1 340.2,100.3 313.4,100.3 313.4,113.3 299.1,113.3 299.2,61.3 
		242.5,61.2 242.5,94 228.1,94 228.1,71.2 169.2,71.1 169.2,93.9 138.2,93.9 138.2,61.1 81.6,61 81.5,113 67.2,113 67.3,100 
		40.5,100 40.4,121.8 23.9,121.8 23.9,137 -0.1,136.9 -0.3,281.1 23.7,281.2 28.3,281.2 40.3,281.2 56.8,281.2 67.1,281.2 
		81.3,281.2 95.6,281.2 138,281.3 168.9,281.3 211.3,281.4 227.9,281.4 242.3,281.4 284.7,281.5 298.9,281.5 313.2,281.5 
		323.5,281.5 340,281.5 352,281.5 356.5,281.5 380.5,281.6 380.7,137.4 	"/>
	<g>
		<path class="st2" d="M311.5,106.2l-10.8-10.8c-1.2-1.2-3.1-1.2-4.3,0l-23.2,23.2c-1.2,1.2-1.2,3.1,0,4.3l10.8,10.8
			c0.7,0.7,1.6,0.9,2.4,0.9l0,0l23.8-1.2c0,0,1.6,0.2,2-2.3l0.1-22.6l0,0C312.4,107.7,312.1,106.8,311.5,106.2z"/>
		<path class="st2" d="M225.3,154.8c-1.4,1.4-3.2,2.4-5.1,2.9c4.8,9.1,7.5,19.5,7.5,30.6c0,36.6-29.7,66.3-66.3,66.3
			c-36.6,0-66.3-29.7-66.3-66.3c0-36.6,29.7-66.3,66.3-66.3c10.5,0,20.5,2.5,29.4,6.9c0.4-2,1.4-4,3-5.5l67.9-67.9
			c4.3-4.3,11.4-4.3,15.7,0l15.9,15.9c4.3,4.3,4.3,11.4,0,15.7L225.3,154.8z M161.4,164.6c-13.1,0-23.7,10.6-23.7,23.7
			s10.6,23.7,23.7,23.7s23.7-10.6,23.7-23.7S174.4,164.6,161.4,164.6z"/>
	</g>
</g>
</svg>
