<?xml version="1.0" encoding="utf-8"?>
<!-- Generator: Adobe Illustrator 23.0.1, SVG Export Plug-In . SVG Version: 6.00 Build 0)  -->
<svg version="1.1" id="Layer_1" xmlns="http://www.w3.org/2000/svg" xmlns:xlink="http://www.w3.org/1999/xlink" x="0px" y="0px"
	 viewBox="0 0 115.5 76.9" style="enable-background:new 0 0 115.5 76.9;" xml:space="preserve">
<style type="text/css">
	.st0{fill:#9ACAEC;}
</style>
<path class="st0" d="M57.8,0c18.3,0,36.5,0,54.8,0c2.5,0,2.9,0.4,2.9,3c0,23.7,0,47.4,0,71.1c0,2.4-0.5,2.9-2.8,2.9
	c-36.6,0-73.2,0-109.8,0c-2.4,0-2.8-0.5-2.8-2.9C0,50.3,0,26.6,0,2.8C0,0.5,0.5,0,2.8,0C21.1,0,39.5,0,57.8,0z M3.7,3.8
	c0,2.4,0.1,4.6,0,6.8c-0.1,1.3,0.4,2.1,1.5,2.8c16.4,10.5,32.7,21.1,49,31.7c2.4,1.6,4.7,1.6,7.1,0c6.6-4.3,13.1-8.5,19.7-12.8
	c9.9-6.4,19.8-12.8,29.7-19.2c0.4-0.3,1-0.7,1-1.1c0.1-2.7,0-5.5,0-8.2C75.7,3.8,39.8,3.8,3.7,3.8z M107.6,73.1
	c-0.4-0.4-0.6-0.6-0.8-0.7C94.4,63.3,82,54.2,69.6,45.2c-0.4-0.3-1.2-0.2-1.6,0c-1.6,0.9-3.2,2-4.7,3c-3.7,2.3-7.3,2.4-11,0
	c-1.6-1-3.2-2-4.7-3.1c-0.7-0.5-1.2-0.5-1.9,0c-12.2,9-24.4,17.9-36.6,26.8c-0.4,0.3-0.7,0.6-1.2,1C41.3,73.1,74.3,73.1,107.6,73.1z
	 M3.8,71.4c13.3-9.7,26.3-19.3,39.5-28.9C30,33.8,17,25.4,3.8,16.9C3.8,35.1,3.8,53,3.8,71.4z M111.8,16.9
	c-13.3,8.6-26.3,17-39.5,25.5c13.2,9.7,26.2,19.2,39.5,28.9C111.8,53.1,111.8,35.2,111.8,16.9z"/>
</svg>
