<?xml version="1.0" encoding="utf-8"?>
<!-- Generator: Adobe Illustrator 23.0.1, SVG Export Plug-In . SVG Version: 6.00 Build 0)  -->
<svg version="1.1" id="Layer_1" xmlns="http://www.w3.org/2000/svg" xmlns:xlink="http://www.w3.org/1999/xlink" x="0px" y="0px"
	 viewBox="0 0 380.8 281.3" style="enable-background:new 0 0 380.8 281.3;" xml:space="preserve">
<style type="text/css">
	.st0{fill:#E8E9F4;}
	.st1{fill:url(#SVGID_1_);}
	.st2{fill:#3B4C59;}
</style>
<path class="st0" d="M371.2,281.6L9.1,281.1c-5.1,0-9.3-4.2-9.3-9.3L0.1,10.3C0.1,5.2,4.2,1,9.4,1l362.1,0.4c5.1,0,9.3,4.2,9.3,9.3
	l-0.3,261.5C380.5,277.4,376.3,281.6,371.2,281.6z"/>
<linearGradient id="SVGID_1_" gradientUnits="userSpaceOnUse" x1="188.161" y1="256.8727" x2="188.161" y2="477.1392" gradientTransform="matrix(1 1.153214e-03 1.153214e-03 -1 1.6596 538.0477)">
	<stop  offset="0" style="stop-color:#FFFFFF"/>
	<stop  offset="0.2985" style="stop-color:#E5EDF6"/>
	<stop  offset="0.5744" style="stop-color:#D5E1F1"/>
	<stop  offset="0.7849" style="stop-color:#CFDDEF"/>
</linearGradient>
<polygon class="st1" points="356.7,137.4 356.7,122.2 340.2,122.1 340.2,100.3 313.4,100.3 313.4,113.3 299.1,113.3 299.2,61.3 
	242.5,61.2 242.5,94 228.1,94 228.1,71.2 169.2,71.1 169.2,93.9 138.2,93.9 138.2,61.1 81.6,61 81.5,113 67.2,113 67.3,100 
	40.5,100 40.4,121.8 23.9,121.8 23.9,137 -0.1,136.9 -0.3,281.1 23.7,281.2 28.3,281.2 40.3,281.2 56.8,281.2 67.1,281.2 
	81.3,281.2 95.6,281.2 138,281.3 168.9,281.3 211.3,281.4 227.9,281.4 242.3,281.4 284.7,281.5 298.9,281.5 313.2,281.5 
	323.5,281.5 340,281.5 352,281.5 356.5,281.5 380.5,281.6 380.7,137.4 "/>
<g>
	<path class="st2" d="M164.5,247.9c-28.6,0-57.2,0-85.7,0c-6.9,0-9.5-2.6-9.5-9.5c0-7.7,0-15.5,0-23.2c0-4.8,1.3-6.6,5.8-8.4
		c18.3-7.2,36.6-14.5,54.9-21.7c1.2-0.5,2.4-1.2,3.7-1.6c12-3.8,11.7-16.2,7.1-23.9c-4.5-7.5-9.6-14.7-12.5-23.1
		c-0.2-0.6-0.7-1.1-1.2-1.5c-7.2-5.6-8.6-13.4-8.1-21.8c0.1-1.5,1.3-3.3,2.5-4.2c1.6-1.1,1.9-2.3,1.9-4c0-4.7-0.1-9.4,0.3-14
		c1.9-24.5,18.9-39.2,43.4-37.8c17.9,1,31.4,10.9,36.2,26.4c2.4,8,2.4,16.2,2.2,24.4c0,2.1-0.1,3.9,2.3,5.3c1.3,0.7,2.2,3,2.3,4.7
		c0.3,8.2-1.3,15.8-8.3,21.2c-0.7,0.5-1.1,1.5-1.5,2.3c-3.4,6.4-6.4,13-10.4,19c-3.6,5.3-4.6,10.8-4.1,16.8c0.4,4.4,3.2,7.3,7.1,9
		c14.3,6,28.6,11.9,42.9,17.7c6.2,2.5,12.5,4.7,18.7,7.1c3.7,1.4,5.2,3.6,5.2,7.7c0,8,0,16.1,0,24.1c0,6.3-2.8,9.1-9,9.1
		C221.8,247.9,193.2,247.9,164.5,247.9C164.5,247.9,164.5,247.9,164.5,247.9z"/>
	<path class="st2" d="M267,228.4c0-3.6,0.1-6.8,0-10c-0.3-11.7-3.5-15.9-14.4-20c-14.4-5.4-28.7-10.8-43-16.5
		c-4.9-1.9-9.4-4.6-14.2-6.9c-2-0.9-3.2-2.6-2.7-4.5c0.7-3.3,1.5-6.7,3-9.6c2.8-5.6,6.1-11,9.3-16.4c1.5-2.5,3.1-5.1,4.9-7.3
		c6.4-7.8,8.5-16.7,6.7-26.6c-0.2-0.9-0.4-2-1-2.7c-2.7-3.2-2.9-6.9-2.8-10.9c0.2-7.3-1-14.4-3.4-21.4
		c-4.2-12.1-12.2-20.5-23.8-25.7c-0.8-0.3-1.6-0.7-2.5-1.1c3.5-5.4,8.4-9,14.1-11.4c14.4-6,28.7-5.6,42.1,2.5
		c11.3,6.8,16.2,17.7,17.3,30.4c0.5,5.2,0.2,10.5,0.5,15.8c0.1,1,0.9,2,1.5,3c1,1.8,2.7,3.5,2.8,5.3c0.6,8.3-1.2,16-8.4,21.4
		c-0.6,0.4-0.9,1.2-1.2,1.9c-2.6,7.4-6.3,14.1-11,20.3c-3.8,5-4.1,10.6-3.5,16.3c0.5,4.6,3.8,7.2,7.7,8.9c12,5.1,23.9,10.1,36,14.9
		c8,3.2,16.1,6.1,24.1,9.2c5.1,2,6.1,3.6,6.1,9.1c0,7.9,0,15.9,0,23.8c0,5.3-3,8.3-8.4,8.3c-11.2,0-22.4,0-33.6,0
		C268.5,228.5,267.9,228.4,267,228.4z"/>
</g>
</svg>
