<?xml version="1.0" encoding="utf-8"?>
<!-- Generator: Adobe Illustrator 23.0.1, SVG Export Plug-In . SVG Version: 6.00 Build 0)  -->
<svg version="1.1" id="Layer_1" xmlns="http://www.w3.org/2000/svg" xmlns:xlink="http://www.w3.org/1999/xlink" x="0px" y="0px"
	 viewBox="0 0 127.6 115.7" style="enable-background:new 0 0 127.6 115.7;" xml:space="preserve">
<style type="text/css">
	.st0{fill:#E33D54;}
	.st1{fill:#DE1B4E;}
	.st2{fill:#F9BC2A;}
</style>
<path class="st0" d="M31.7,48.6L7.8,96.1l2.5,14h34.9l15.9-0.7L43.4,91.7l-2.9-15.1c0,0,1.1-17.9,2-20c1-2,6.4-8.4,6.5-13.1
	S49.2,33,49.2,33s-9.5-1.9-10.8-0.1C37.1,34.7,31.7,48.6,31.7,48.6z"/>
<path class="st0" d="M64.8,8.9l21,47.8c0,0,12.5,25.7,13.3,26.6c0.8,1,12.2,14.6,12.6,14.9c0.4,0.2,4.8,3.8,4.8,3.8l3.1-9.2
	l-15.8-32.2c0,0-10-25.4-14.9-28.8c-4.9-3.4-13.2-17-13.2-17L64.8,8.9z"/>
<g>
	<rect x="48" y="102" class="st0" width="40" height="8.1"/>
	<g>
		<rect x="74.8" y="81.6" class="st0" width="44.2" height="27.8"/>
		<g>
			<path class="st1" d="M27.3,43.7c0.4-0.6,0.7-1,1-1.6c6.2-10.8,12.5-21.7,18.8-32.6c4.4-7.5,12.6-11,21-9.1
				c6,1.3,10.2,5,13.2,10.3c6.7,11.7,13.5,23.3,20.2,35l6.9,11.8c0.5,0.9,0.8,1.4,1,1.9c5.3,9.1,10.6,18.2,15.7,27.3
				c5.7,10,1.5,22.4-9,27.1c-1.7,0.8-3.6,1.1-5.4,1.7c-31.3,0-62.5,0-93.8,0c-0.2-0.1-0.4-0.2-0.6-0.3c-12.7-1.7-20.9-16.6-13.5-29
				c2.6-4.3,5-8.6,7.5-13C14.2,66.6,18.2,59.8,22,53L27.3,43.7z M63.8,105.3c1.6,0,3.1,0,4.7,0c13.1,0,26.2,0,39.3,0
				c4.3,0,7.6-2.2,8.9-6c1-2.8,0.6-5.3-0.9-7.8c-5.3-9.1-10.6-18.3-15.8-27.3C90.7,48,81.3,31.8,72,15.6c-1.2-2.1-2.8-3.8-5.1-4.6
				c-4.4-1.6-8.6,0.2-11.2,4.7c-8.1,14-16.2,28-24.2,42c-6.5,11.3-13,22.5-19.5,33.8c-1.1,2-1.9,4.1-1.3,6.4c1,4.7,4.5,7.5,9.4,7.5
				C34.5,105.3,49.2,105.3,63.8,105.3z"/>
			<path class="st0" d="M63.8,105.3c-14.6,0-29.3,0-43.9,0c-4.9,0-8.4-2.8-9.4-7.5c-0.5-2.3,0.2-4.4,1.3-6.4
				c6.5-11.3,13-22.5,19.5-33.8c8.1-14,16.2-28,24.2-42c2.6-4.5,6.8-6.2,11.2-4.7c2.3,0.8,3.9,2.5,5.1,4.6
				c9.3,16.2,18.7,32.4,28,48.6c5.3,9.1,10.6,18.3,15.8,27.3c1.4,2.5,1.9,5,0.9,7.8c-1.3,3.8-4.6,6-8.9,6c-13.1,0-26.2,0-39.3,0
				C66.9,105.3,65.4,105.3,63.8,105.3z M68,75.8c0.7-10.3,1.4-20.4,2-30.6c-4.2,0-8.2,0-12.5,0c0.7,10.3,1.4,20.4,2,30.6
				C62.5,75.8,65.2,75.8,68,75.8z M64,80.7c-3.8,0-6.6,2.3-6.6,5.7c0,3.6,2.7,6.3,6.3,6.4c3.6,0.1,6.5-2.6,6.5-6.1
				C70.3,83.2,67.7,80.8,64,80.7z"/>
			<path class="st2" d="M68,75.8c-2.8,0-5.5,0-8.4,0c-0.7-10.2-1.4-20.3-2-30.6c4.2,0,8.3,0,12.5,0C69.4,55.4,68.7,65.6,68,75.8z"/>
			<path class="st2" d="M64,80.7c3.7,0,6.2,2.5,6.2,5.9c0,3.5-2.9,6.2-6.5,6.1c-3.7-0.1-6.4-2.8-6.3-6.4C57.5,83,60.2,80.7,64,80.7z
				"/>
		</g>
	</g>
</g>
</svg>
