<?xml version="1.0" encoding="utf-8"?>
<!-- Generator: Adobe Illustrator 23.0.1, SVG Export Plug-In . SVG Version: 6.00 Build 0)  -->
<svg version="1.1" id="Layer_1" xmlns="http://www.w3.org/2000/svg" xmlns:xlink="http://www.w3.org/1999/xlink" x="0px" y="0px"
	 viewBox="0 0 69.6 81.2" style="enable-background:new 0 0 69.6 81.2;" xml:space="preserve">
<style type="text/css">
	.st0{fill:#9ACAEC;}
	.st1{fill:#FFFFFF;}
	.st2{fill:#3C4D59;}
</style>
<g>
	<path class="st0" d="M69.6,26.3c0,6.7,0,13.5,0,20.2c0,3.6-2.2,6-5.8,6c-13.6,0-27.2,0-40.8,0c-3.3,0-5.7-2.6-5.7-5.9
		c0-13.4,0-26.8,0-40.2c0-4.1,2.2-6.3,6.3-6.3c13.5,0,27,0,40.5,0c3.2,0,5.5,2.3,5.5,5.5C69.6,12.5,69.6,19.4,69.6,26.3z M45.9,42.1
		C53.9,41,60,34,59.6,25.6c-0.4-8.5-7.1-14.8-13.7-15c-0.2,1.4-0.7,2.5-2.4,2.6c-1.9,0-2-1.4-2.3-2.7c-7.7,0.9-14.6,8.4-13.7,17.5
		c0.7,7.5,7.1,13.6,13.7,14.1c0.5-2.1,1-2.8,2.4-2.7C44.9,39.3,45.4,40,45.9,42.1z"/>
	<path class="st1" d="M45.9,42.1c-0.5-2.2-1.1-2.8-2.4-2.8c-1.4,0-1.9,0.6-2.4,2.7c-6.5-0.6-12.9-6.6-13.7-14.1
		c-0.9-9.1,5.9-16.6,13.7-17.5c0.3,1.3,0.5,2.8,2.3,2.7c1.7,0,2.2-1.2,2.4-2.6c6.6,0.2,13.3,6.4,13.7,15C60,34,53.9,41,45.9,42.1z
		 M47.6,26.3c0,2.1,1.4,3.6,3.5,3.6c2.2,0,3.8-1.6,3.8-3.7c0-1.9-1.8-3.6-3.7-3.6C49.2,22.5,47.6,24.2,47.6,26.3z M39.5,26.3
		c0.1-2.4-2-3.6-3.7-3.7c-2-0.1-3.7,1.7-3.7,3.7c0,1.9,1.6,3.5,3.5,3.6C37.8,29.9,39.5,28.3,39.5,26.3z"/>
	<path class="st0" d="M47.6,26.3c0-2.1,1.6-3.8,3.6-3.8c1.9,0,3.6,1.7,3.7,3.6c0.1,2.1-1.6,3.8-3.8,3.7
		C49.1,29.9,47.7,28.4,47.6,26.3z"/>
	<path class="st0" d="M39.5,26.3c0,2-1.7,3.6-3.8,3.5c-1.9,0-3.5-1.6-3.5-3.6c0-2.1,1.6-3.8,3.7-3.7C37.5,22.7,39.5,23.9,39.5,26.3z
		"/>
	<path class="st2" d="M40.6,58.7c-2.1-1.3-4.1-2.2-5.8-3.6c-2.4-1.9-3.3-4.6-3.5-7.6c-0.1-1.6-0.1-3.1-0.1-4.7c0-0.8-0.2-1.2-1-1.5
		c-1.4-0.5-2.3-1.9-2.1-3.1c0.3-1.7,1.2-2.6,3.1-2.7c0.9-0.1,1.8,0,3,0c0-2.8-0.1-5.4-0.1-8.1c0-0.6,0.1-1.3,0.3-1.8
		c0.4-1,1.2-1.6,2.3-1.4c1.2,0.2,2,0.9,2.1,2.3c0,2.4,0.1,4.9,0.1,7.3c0,0.5,0,1,0,1.5c3.4,0,6.6-0.1,10-0.1c0-1.7,0-3.4-0.1-5.1
		c0-1.2-0.1-2.3,0-3.5c0-1.5,1.1-2.7,2.3-2.7c1.3,0,2.2,1,2.2,2.7c0,2.4,0.1,4.9,0,7.3c0,1.1,0.4,1.4,1.4,1.3c0.5-0.1,1.1,0,1.6,0
		c1.7,0,2.8,0.9,3.2,2.2c0.4,1.5-0.3,2.8-1.8,3.6c-0.3,0.2-0.7,0.3-1.2,0.5c0,1.9,0,3.8,0.1,5.8c0.3,4.7-3.5,9.2-7.9,10.5
		c-0.4,0.1-0.7,0.2-0.9,0.2c-0.7,2.7-1.2,5.4-2.1,7.8c-2.1,5.9-6.1,10.2-11.7,12.8c-8.8,4.1-17.3,3.2-25-2.7
		c-4.9-3.7-7.8-8.8-8.8-15C0.2,60,0,59,0,58c0-2.1,1.4-3.6,3.4-3.6c1.9,0,3.2,1.3,3.3,3.5c0.3,5.5,2.5,9.9,6.9,13.2
		c8.1,6,19.8,3.6,24.8-5.1C39.8,63.6,40.6,61.1,40.6,58.7z"/>
</g>
</svg>
