<?xml version="1.0" encoding="utf-8"?>
<!-- Generator: Adobe Illustrator 23.0.1, SVG Export Plug-In . SVG Version: 6.00 Build 0)  -->
<svg version="1.1" id="Layer_1" xmlns="http://www.w3.org/2000/svg" xmlns:xlink="http://www.w3.org/1999/xlink" x="0px" y="0px"
	 viewBox="0 0 20 20" style="enable-background:new 0 0 20 20;" xml:space="preserve">
<style type="text/css">
	.st0{fill:#3B4C59;}
	.st1{fill:#9ACAEC;}
</style>
<g>
	<polyline class="st0" points="5.3,18.1 1.6,18.1 1.6,14.7 0.5,14.7 0.5,19.2 5.3,19.2 	"/>
	<polyline class="st1" points="18.4,1.9 18.4,15.3 18.4,16.5 19.5,17.6 19.5,0.8 19.5,0.8 0.5,0.8 0.5,9.7 1.6,8.4 1.6,1.9 
		18.4,1.9 	"/>
	<polygon class="st0" points="0.5,11.3 6,5.8 11.2,11.1 11.2,9.4 14.9,9.4 15,14.7 19.5,19.2 17.7,19.2 13.8,15.1 13.8,10.4 
		12.4,10.4 12.4,13.6 6,7.2 0.5,12.8 	"/>
</g>
</svg>
