<?xml version="1.0" encoding="utf-8"?>
<!-- Generator: Adobe Illustrator 23.0.1, SVG Export Plug-In . SVG Version: 6.00 Build 0)  -->
<svg version="1.1" id="Layer_1" xmlns="http://www.w3.org/2000/svg" xmlns:xlink="http://www.w3.org/1999/xlink" x="0px" y="0px"
	 viewBox="0 0 50 50" style="enable-background:new 0 0 50 50;" xml:space="preserve">
<style type="text/css">
	.st0{fill:#9BCBED;}
	.st1{fill:#FFFFFF;}
</style>
<g>
	<path class="st0" d="M49.5,25c0-13.6-11-24.6-24.5-24.6C11.4,0.4,0.5,11.4,0.5,25c0,12.3,9,22.4,20.7,24.3V32.1h-6.2V25h6.2v-5.4
		c0-6.2,3.7-9.6,9.3-9.6c2.7,0,5.5,0.5,5.5,0.5v6.1h-3.1c-3,0-4,1.9-4,3.8V25h6.8l-1.1,7.1h-5.7v17.2C40.6,47.4,49.5,37.3,49.5,25z"
		/>
	<path class="st1" d="M34.6,32.1l1.1-7.1h-6.8v-4.6c0-1.9,1-3.8,4-3.8h3.1v-6.1c0,0-2.8-0.5-5.5-0.5c-5.6,0-9.3,3.4-9.3,9.6V25h-6.2
		v7.1h6.2v17.2c1.2,0.2,2.5,0.3,3.8,0.3c1.3,0,2.6-0.1,3.8-0.3V32.1H34.6z"/>
</g>
</svg>
