<?xml version="1.0" encoding="utf-8"?>
<!-- Generator: Adobe Illustrator 23.0.1, SVG Export Plug-In . SVG Version: 6.00 Build 0)  -->
<svg version="1.1" id="Layer_1" xmlns="http://www.w3.org/2000/svg" xmlns:xlink="http://www.w3.org/1999/xlink" x="0px" y="0px"
	 viewBox="0 0 104.8 95.6" style="enable-background:new 0 0 104.8 95.6;" xml:space="preserve">
<style type="text/css">
	.st0{fill:#9ACAEC;}
	.st1{fill:#3C4D59;}
</style>
<g>
	<path class="st0" d="M35.6,18.1c-2.7,9.9-4.4,19.2,6.4,25.2C36.8,26.2,40,11.6,53.6,0c0.4,0.1,0.8,0.2,1.2,0.3
		c-0.2,1.6-0.5,3.3-0.7,4.9c-1.3,7.6-0.1,14.8,3.1,21.8c1.4,3.1,2.7,3.4,5.5,1.3c3-2.3,4-5.7,4.8-9.1c0.1-0.6,0.2-1.1,0.4-1.7
		c6.4,1.5,15.2,13.9,14.1,26.3C80.5,59.2,68.1,71,53,71.3c-15.1,0.3-28-10.4-30.2-25.1C21.2,35.3,27.8,20.2,35.6,18.1z"/>
	<g>
		<path class="st1" d="M37.1,73.5H15.9c0,0-0.1,0-0.1,0c-0.9,0-1.8,0.2-2.3,0.7L0.6,85.9c-0.9,0.8-0.7,2,0.5,2.6
			c1.2,0.6,2.9,0.5,3.8-0.3l12.1-11h20.2c1.5,0,2.7-0.8,2.7-1.9C39.8,74.3,38.6,73.5,37.1,73.5z"/>
		<path class="st1" d="M67.7,73.5h21.2c0,0,0.1,0,0.1,0c0.9,0,1.8,0.2,2.3,0.7l12.9,11.7c0.9,0.8,0.7,2-0.5,2.6
			c-1.2,0.6-2.9,0.5-3.8-0.3l-12.1-11H67.7c-1.5,0-2.7-0.8-2.7-1.9C65,74.3,66.2,73.5,67.7,73.5z"/>
		<path class="st1" d="M54.8,95.6h-1c-1.4,0-2.5-1.1-2.5-2.5V80.8c0-1.4,1.1-2.5,2.5-2.5h1c1.4,0,2.5,1.1,2.5,2.5v12.3
			C57.3,94.5,56.2,95.6,54.8,95.6z"/>
	</g>
</g>
</svg>
