<?xml version="1.0" encoding="utf-8"?>
<!-- Generator: Adobe Illustrator 23.0.1, SVG Export Plug-In . SVG Version: 6.00 Build 0)  -->
<svg version="1.1" id="Layer_1" xmlns="http://www.w3.org/2000/svg" xmlns:xlink="http://www.w3.org/1999/xlink" x="0px" y="0px"
	 viewBox="0 0 380.8 281.3" style="enable-background:new 0 0 380.8 281.3;" xml:space="preserve">
<style type="text/css">
	.st0{fill:#E8E9F4;}
	.st1{fill:url(#SVGID_1_);}
	.st2{fill:#3B4C59;}
</style>
<path class="st0" d="M371.2,281.6L9.1,281.1c-5.1,0-9.3-4.2-9.3-9.3L0.1,10.3C0.1,5.2,4.2,1,9.4,1l362.1,0.4c5.1,0,9.3,4.2,9.3,9.3
	l-0.3,261.5C380.5,277.4,376.3,281.6,371.2,281.6z"/>
<linearGradient id="SVGID_1_" gradientUnits="userSpaceOnUse" x1="188.161" y1="256.8727" x2="188.161" y2="477.1392" gradientTransform="matrix(1 1.153214e-03 1.153214e-03 -1 1.6596 538.0477)">
	<stop  offset="0" style="stop-color:#FFFFFF"/>
	<stop  offset="0.2985" style="stop-color:#E5EDF6"/>
	<stop  offset="0.5744" style="stop-color:#D5E1F1"/>
	<stop  offset="0.7849" style="stop-color:#CFDDEF"/>
</linearGradient>
<polygon class="st1" points="356.7,137.4 356.7,122.2 340.2,122.1 340.2,100.3 313.4,100.3 313.4,113.3 299.1,113.3 299.2,61.3 
	242.5,61.2 242.5,94 228.1,94 228.1,71.2 169.2,71.1 169.2,93.9 138.2,93.9 138.2,61.1 81.6,61 81.5,113 67.2,113 67.3,100 
	40.5,100 40.4,121.8 23.9,121.8 23.9,137 -0.1,136.9 -0.3,281.1 23.7,281.2 28.3,281.2 40.3,281.2 56.8,281.2 67.1,281.2 
	81.3,281.2 95.6,281.2 138,281.3 168.9,281.3 211.3,281.4 227.9,281.4 242.3,281.4 284.7,281.5 298.9,281.5 313.2,281.5 
	323.5,281.5 340,281.5 352,281.5 356.5,281.5 380.5,281.6 380.7,137.4 "/>
<g>
	<path class="st2" d="M188,220.9c-4.1,7.9-2.7,16.3-2.9,24.6c3.4,0,6.7,0,10.2,0c0-0.8,0.1-1.6,0.1-2.3c0-5.4-0.2-10.7,0.1-16.1
		c0.1-3.4-0.6-6.3-2.8-9c0.6-0.4,1-0.8,1.5-1.1c7.9-4.6,15.8-9.1,23.7-13.6c0.8-0.5,2.1-0.7,3-0.4c19.1,5.7,38.1,11.5,57.1,17.3
		c0.5,0.1,0.9,0.4,1.7,0.7c-4.4,8.9-2.3,18.4-2.9,27.8c-57.6,0-115.1,0-172.9,0c0-1.4,0-2.7,0-4.1c0-5.8-0.2-11.6,0-17.4
		c0.1-3.4-0.6-6.4-2.8-9.2c0.6-0.4,1.1-0.8,1.5-1c7.9-4.6,15.8-9.1,23.7-13.6c0.8-0.4,2-0.7,2.8-0.4c19.2,5.8,38.4,11.6,57.5,17.4
		C186.9,220.5,187.2,220.6,188,220.9z M141.7,245.6c9.9,0,19.5,0,29.4,0c0-3.6-0.1-7.2,0-10.7c0-1.3-0.4-1.9-1.7-2.2
		c-6-1.4-12-2.9-17.9-4.3c-3.2-0.8-6.4-1.5-9.7-2.3C141.7,232.7,141.7,239.1,141.7,245.6z M233.4,245.6c9.9,0,19.5,0,29.3,0
		c0-3.7-0.1-7.2,0-10.7c0-1.4-0.5-1.9-1.8-2.2c-5.3-1.2-10.6-2.5-15.8-3.8c-3.8-0.9-7.7-1.8-11.7-2.8
		C233.4,232.7,233.4,239.1,233.4,245.6z"/>
	<path class="st2" d="M105.8,175.1c-1.6-2.8-3.2-5.5-4.8-8.3c2.1-1.2,4.1-2.4,6.1-3.6c6.4-3.7,12.8-7.4,19.2-11
		c0.7-0.4,1.8-0.6,2.6-0.4c19.3,5.8,38.6,11.6,57.9,17.5c0.3,0.1,0.5,0.2,0.9,0.5c-0.9,3-1.8,5.9-2.7,9.1c-5.6-1.7-11-3.3-16.5-5
		c-12.6-3.8-25.2-7.7-37.8-11.5c-1.4-0.4-2.4-0.3-3.6,0.4c-6.4,3.7-12.8,7.4-19.2,11.1C107.3,174.3,106.6,174.7,105.8,175.1z"/>
	<path class="st2" d="M105.8,158.2c-1.7-2.9-3.2-5.5-4.8-8.2c0.5-0.4,1-0.7,1.4-1c7.9-4.6,15.8-9.1,23.7-13.6
		c0.8-0.4,1.9-0.7,2.8-0.4c19.3,5.8,38.6,11.7,57.9,17.5c0.2,0.1,0.4,0.2,0.8,0.4c-0.9,3-1.8,6-2.8,9.1c-9.9-3-19.7-6-29.4-8.9
		c-8.2-2.5-16.5-5-24.7-7.5c-1.4-0.4-2.6-0.3-3.8,0.5C120.1,150,113,154,105.8,158.2z"/>
	<path class="st2" d="M197.4,56c-1.6-2.8-3.2-5.5-4.7-8.2c0.6-0.4,1-0.7,1.5-1c7.9-4.6,15.8-9.1,23.7-13.6c0.7-0.4,1.8-0.7,2.6-0.5
		c19.4,5.8,38.8,11.7,58.1,17.6c0.2,0.1,0.4,0.2,0.8,0.4c-0.9,3-1.8,6-2.7,9.1c-9.5-2.9-18.9-5.7-28.2-8.5
		c-8.7-2.6-17.4-5.4-26.2-7.9c-1-0.3-2.4-0.1-3.4,0.4c-6.4,3.6-12.8,7.3-19.2,11C199.1,55.1,198.4,55.5,197.4,56z"/>
	<path class="st2" d="M105.8,90c-1.6-2.8-3.1-5.4-4.7-8.1c0.5-0.4,0.9-0.7,1.4-1c7.9-4.6,15.8-9.2,23.7-13.6c0.8-0.5,2.1-0.7,3-0.5
		c19.1,5.7,38.2,11.5,57.3,17.3c0.4,0.1,0.8,0.3,1.3,0.5c-0.9,3-1.8,6-2.8,9.1c-5.3-1.6-10.4-3.1-15.5-4.7
		c-12.9-3.9-25.9-7.9-38.8-11.7c-1-0.3-2.5-0.2-3.4,0.4c-6.6,3.7-13.1,7.5-19.6,11.2C107.1,89.3,106.5,89.7,105.8,90z"/>
	<path class="st2" d="M192.6,81.8c8.8-5.1,17.4-10.1,26-15c0.5-0.3,1.4-0.2,2.1-0.1c19.2,5.8,38.3,11.6,57.5,17.4
		c0.4,0.1,0.8,0.3,1.3,0.5c-0.9,3-1.8,6-2.8,9.1c-6.3-1.9-12.4-3.7-18.4-5.6c-11.9-3.6-23.8-7.2-35.7-10.9c-1.5-0.5-2.6-0.3-3.8,0.5
		c-7,4.1-14,8.1-21.2,12.3C195.9,87.3,194.3,84.7,192.6,81.8z"/>
	<path class="st2" d="M105.8,124.1c-1.6-2.8-3.1-5.4-4.8-8.3c1.1-0.6,2.1-1.2,3.1-1.8c7.3-4.2,14.6-8.5,22-12.6
		c0.8-0.5,2.1-0.8,3-0.5c19.2,5.8,38.3,11.6,57.5,17.4c0.3,0.1,0.7,0.2,1.2,0.4c-0.9,3-1.8,6-2.7,9.1c-0.8-0.2-1.5-0.4-2.1-0.6
		c-17.4-5.3-34.7-10.5-52.1-15.8c-1.4-0.4-2.4-0.3-3.7,0.4c-6.4,3.7-12.8,7.4-19.2,11.1C107.3,123.3,106.6,123.6,105.8,124.1z"/>
	<path class="st2" d="M197.5,124.1c-1.6-2.8-3.1-5.4-4.8-8.2c0.6-0.4,1.1-0.8,1.6-1.1c7.8-4.5,15.6-9.1,23.5-13.5
		c0.8-0.4,2-0.7,2.8-0.5c19.3,5.8,38.6,11.7,57.9,17.6c0.3,0.1,0.5,0.2,0.9,0.4c-0.9,3-1.8,6-2.8,9.1c-6-1.8-11.8-3.6-17.6-5.3
		c-12.2-3.7-24.5-7.5-36.7-11.1c-1-0.3-2.5-0.1-3.4,0.4C211.8,115.8,204.8,119.9,197.5,124.1z"/>
	<path class="st2" d="M197.4,175.1c-1.6-2.8-3.2-5.5-4.8-8.3c4.9-2.8,9.6-5.5,14.3-8.2c3.7-2.1,7.4-4.3,11.1-6.4
		c0.7-0.4,1.8-0.6,2.6-0.4c19.3,5.8,38.5,11.6,57.7,17.4c0.3,0.1,0.6,0.3,1.1,0.5c-0.9,3-1.8,6-2.8,9.1c-6.1-1.8-12-3.6-17.9-5.4
		c-12.1-3.7-24.2-7.4-36.3-11.1c-1.4-0.4-2.4-0.3-3.6,0.5c-6.4,3.7-12.8,7.4-19.2,11.1C199,174.3,198.3,174.7,197.4,175.1z"/>
	<path class="st2" d="M187.8,203.8c-0.9,3-1.8,5.9-2.8,9.1c-1.9-0.5-3.7-1-5.4-1.6c-16.3-4.9-32.5-9.9-48.7-14.8
		c-1.4-0.4-2.4-0.3-3.7,0.4c-6.4,3.8-12.9,7.5-19.3,11.2c-0.6,0.4-1.3,0.7-2,1.1c-1.6-2.8-3.1-5.4-4.8-8.3c1.5-0.9,3-1.7,4.4-2.5
		c6.9-4,13.8-8,20.7-11.9c0.8-0.5,2.1-0.8,3-0.5c19.2,5.8,38.5,11.6,57.7,17.5C187,203.5,187.3,203.6,187.8,203.8z"/>
	<path class="st2" d="M279.4,203.8c-0.9,3-1.8,5.9-2.7,8.9c-0.6-0.1-1.2-0.2-1.7-0.4c-17.5-5.3-35-10.6-52.5-15.9
		c-1.5-0.5-2.6-0.3-3.8,0.5c-7,4.1-14,8.1-21.2,12.3c-1.6-2.8-3.1-5.4-4.8-8.2c0.5-0.4,0.9-0.7,1.3-0.9c8-4.6,15.9-9.2,23.9-13.7
		c0.8-0.5,2.1-0.7,3-0.4c19,5.7,37.9,11.5,56.9,17.2C278.3,203.4,278.8,203.6,279.4,203.8z"/>
	<path class="st2" d="M279.4,101.7c-0.9,3-1.8,6-2.8,9.1c-5.4-1.6-10.7-3.2-15.9-4.8c-12.8-3.9-25.6-7.8-38.4-11.6
		c-1-0.3-2.5-0.1-3.4,0.4c-7.1,4-14.2,8.1-21.5,12.3c-1.6-2.7-3.1-5.4-4.7-8.2c0.5-0.4,0.9-0.7,1.4-1c7.9-4.6,15.8-9.1,23.7-13.6
		c0.8-0.5,2.1-0.7,3-0.4c19,5.7,38.1,11.5,57.1,17.3C278.4,101.3,278.8,101.5,279.4,101.7z"/>
	<path class="st2" d="M105.8,141.2c-1.7-2.9-3.2-5.5-4.8-8.3c0.7-0.5,1.4-0.9,2.1-1.3c7.7-4.4,15.4-8.9,23.2-13.3
		c0.8-0.4,2-0.7,2.8-0.4c19.3,5.8,38.5,11.6,57.7,17.5c0.3,0.1,0.5,0.2,1,0.4c-0.9,3-1.8,5.9-2.8,9.1c-3.5-1.1-7-2.1-10.4-3.1
		c-14.5-4.4-29.1-8.8-43.6-13.3c-1.5-0.5-2.7-0.4-4.1,0.4C120,133,113,137,105.8,141.2z"/>
	<path class="st2" d="M279.4,152.8c-0.9,3-1.8,5.9-2.7,9c-5.1-1.6-10.1-3.1-15.2-4.6c-13-4-26-7.9-39-11.9c-1.4-0.4-2.4-0.3-3.6,0.4
		c-6.4,3.7-12.8,7.4-19.2,11.1c-0.7,0.4-1.4,0.8-2.2,1.2c-1.6-2.8-3.1-5.4-4.8-8.3c1.4-0.8,2.7-1.6,4-2.4
		c7.1-4.1,14.2-8.2,21.3-12.2c0.7-0.4,1.8-0.7,2.6-0.4c19.4,5.8,38.8,11.7,58.1,17.6C278.9,152.5,279,152.6,279.4,152.8z"/>
	<path class="st2" d="M187.8,101.7c-0.9,3.1-1.8,5.9-2.8,9.1c-1.1-0.3-2-0.5-3-0.8c-17.1-5.2-34.2-10.4-51.3-15.5
		c-1.1-0.3-2.6-0.2-3.6,0.4c-7.1,4-14.2,8.1-21.4,12.3c-1.6-2.8-3.2-5.5-4.8-8.2c0.6-0.4,1.1-0.8,1.7-1.1c7.8-4.5,15.5-9,23.3-13.4
		c0.8-0.5,2.1-0.8,3-0.5c19.2,5.8,38.5,11.6,57.7,17.5C187,101.4,187.3,101.5,187.8,101.7z"/>
	<path class="st2" d="M279.4,135.7c-0.9,3-1.8,6-2.8,9.1c-5.5-1.7-10.9-3.3-16.2-4.9c-12.7-3.8-25.3-7.7-38-11.6
		c-1.4-0.4-2.4-0.3-3.7,0.4c-6.4,3.7-12.8,7.4-19.2,11.1c-0.7,0.4-1.4,0.8-2.2,1.2c-1.6-2.8-3.1-5.4-4.8-8.3c1-0.6,1.8-1.1,2.7-1.6
		c7.5-4.3,14.9-8.6,22.4-12.9c0.8-0.5,2.1-0.7,3-0.5c19.1,5.7,38.2,11.5,57.3,17.3C278.4,135.4,278.8,135.5,279.4,135.7z"/>
	<path class="st2" d="M105.8,192.2c-1.6-2.8-3.1-5.4-4.7-8.2c0.5-0.4,1-0.7,1.5-1c7.9-4.6,15.8-9.2,23.7-13.6c0.8-0.5,2.1-0.7,3-0.4
		c19,5.7,38.1,11.5,57.1,17.3c0.5,0.1,0.9,0.4,1.5,0.6c-0.9,3-1.8,6-2.8,9.1c-7.2-2.2-14.1-4.3-21.1-6.4c-11.1-3.4-22.1-6.8-33.2-10
		c-1-0.3-2.4-0.1-3.4,0.4c-6.5,3.6-12.9,7.4-19.4,11.1C107.3,191.4,106.7,191.7,105.8,192.2z"/>
	<path class="st2" d="M192.6,64.7c6.2-3.6,12.2-7.1,18.2-10.5c2.8-1.6,5.6-4.2,8.5-4.5c3-0.3,6.2,1.5,9.3,2.5
		c16.3,4.9,32.5,9.9,48.8,14.8c0.6,0.2,1.2,0.4,1.9,0.7c-0.9,3.1-1.8,6-2.8,9.1c-6.1-1.8-12-3.6-18-5.4c-12-3.7-24.1-7.3-36.1-11
		c-1.4-0.4-2.5-0.4-3.8,0.4c-7,4.1-14,8.1-21.3,12.3C195.9,70.3,194.3,67.6,192.6,64.7z"/>
	<path class="st2" d="M197.4,192.2c-1.6-2.8-3.1-5.4-4.8-8.3c1.8-1.1,3.5-2,5.2-3c6.6-3.8,13.3-7.7,19.9-11.5c0.8-0.5,2.1-0.8,3-0.5
		c19.2,5.7,38.3,11.6,57.5,17.4c0.3,0.1,0.7,0.3,1.2,0.5c-0.9,3-1.8,5.9-2.7,9.1c-0.9-0.3-1.7-0.4-2.5-0.7
		c-17.2-5.2-34.5-10.4-51.7-15.7c-1.3-0.4-2.4-0.3-3.6,0.4c-6.4,3.8-12.8,7.4-19.2,11.1C199,191.3,198.3,191.7,197.4,192.2z"/>
</g>
</svg>
