<?xml version="1.0" encoding="utf-8"?>
<!-- Generator: Adobe Illustrator 23.0.1, SVG Export Plug-In . SVG Version: 6.00 Build 0)  -->
<svg version="1.1" id="Layer_1" xmlns="http://www.w3.org/2000/svg" xmlns:xlink="http://www.w3.org/1999/xlink" x="0px" y="0px"
	 viewBox="0 0 141.1 115.6" style="enable-background:new 0 0 141.1 115.6;" xml:space="preserve">
<style type="text/css">
	.st0{fill:#3C4D59;}
	.st1{fill:#FFFFFF;}
	.st2{fill:#9ACAEC;}
</style>
<g>
	<rect x="4.3" y="6.2" class="st0" width="73.4" height="109.4"/>
	<polygon class="st1" points="116.5,66.1 115.1,61.2 108.7,51.2 91.5,44.7 64.8,66.1 62.5,66.1 62.5,115.6 124.9,115.6 124.9,66.1 	
		"/>
	<rect x="10.8" y="12.3" class="st1" width="9.8" height="9.8"/>
	<rect x="28.2" y="12.3" class="st1" width="9.8" height="9.8"/>
	<rect x="45.6" y="12.3" class="st1" width="9.8" height="9.8"/>
	<rect x="62.5" y="12.3" class="st1" width="9.8" height="9.8"/>
	<rect x="10.8" y="29" class="st1" width="9.8" height="9.8"/>
	<rect x="28.2" y="29" class="st1" width="9.8" height="9.8"/>
	<rect x="45.6" y="29" class="st1" width="9.8" height="9.8"/>
	<rect x="62.5" y="29" class="st1" width="9.8" height="9.8"/>
	<g>
		<g>
			<rect x="11.4" y="44.7" class="st1" width="9.8" height="9.8"/>
			<rect x="28.8" y="44.7" class="st1" width="9.8" height="9.8"/>
			<rect x="46.2" y="44.7" class="st1" width="9.8" height="9.8"/>
			<rect x="63.1" y="44.7" class="st1" width="9.8" height="9.8"/>
		</g>
	</g>
	<g>
		<g>
			<rect x="11.4" y="61.2" class="st1" width="9.8" height="9.8"/>
			<rect x="28.8" y="61.2" class="st1" width="9.8" height="9.8"/>
			<rect x="46.2" y="61.2" class="st1" width="9.8" height="9.8"/>
			<rect x="63.1" y="61.2" class="st1" width="9.8" height="9.8"/>
		</g>
	</g>
	<rect x="35.1" y="90.8" class="st1" width="14.5" height="22.6"/>
	<polygon class="st0" points="82.1,6.2 0,6.2 4.3,0 77.8,0 	"/>
	<g>
		<rect x="74.6" y="84.5" class="st2" width="16.9" height="31.1"/>
		<rect x="98.7" y="84.5" class="st2" width="16.4" height="16.4"/>
		<polygon class="st2" points="141.1,74.4 94.5,35.6 47.4,74.2 47.4,79.9 56.9,79.9 56.9,115.6 63.8,115.6 63.8,74.2 63.8,74.2 
			94.2,49 124.7,74.2 124.5,74.2 124.5,115.6 131.4,115.6 131.4,79.9 141.1,79.9 		"/>
	</g>
</g>
</svg>
