<?xml version="1.0" encoding="utf-8"?>
<!-- Generator: Adobe Illustrator 23.0.1, SVG Export Plug-In . SVG Version: 6.00 Build 0)  -->
<svg version="1.1" id="Layer_1" xmlns="http://www.w3.org/2000/svg" xmlns:xlink="http://www.w3.org/1999/xlink" x="0px" y="0px"
	 viewBox="0 0 300.84 134" style="enable-background:new 0 0 300.84 134;" xml:space="preserve">
<style type="text/css">
	.st0{fill:#9BCBED;}
	.st1{fill:#3B4C59;}
	.st2{fill:none;stroke:#ED1C24;stroke-width:1.1394;stroke-miterlimit:10;}
	.st3{fill:#58595B;}
	.st4{font-family:'FreightTextProBold-Regular';}
	.st5{font-size:50.0018px;}
	.st6{font-family:'HelveticaNeueLight';}
	.st7{font-size:22.5498px;}
</style>
<g>
	<g>
		<g>
			<polygon class="st0" points="15.63,108.37 22.4,108.37 22.4,46.91 15.63,53.91 			"/>
			<polygon class="st0" points="44.15,108.29 44.15,14.83 35.35,23.83 35.35,51.54 41.3,57.24 41.3,107.74 			"/>
			<polygon class="st1" points="47.24,108.81 47.24,14.83 66.13,38.71 66.1,54.87 56.68,65.35 56.68,108.81 			"/>
			<polygon class="st0" points="78.96,108.37 85.73,108.37 85.73,54.91 78.96,46.91 			"/>
			<polygon class="st1" points="24.78,108.37 39.16,108.37 39.16,58.91 24.78,46.91 			"/>
			<polygon class="st1" points="59.12,107.9 75.99,107.9 75.99,46.43 59.12,66.43 			"/>
		</g>
		<path class="st2" d="M35.35,60.21"/>
	</g>
	<g>
		<g>
			<text transform="matrix(1 0 0 1 97.4187 89.5411)" class="st3 st4 st5">KIOSKO</text>
		</g>
		<g>
			<text transform="matrix(1 0 0 1 115.4734 112.2452)" class="st3 st6 st7">INMOBILIARIO</text>
		</g>
	</g>
</g>
</svg>
