<?xml version="1.0" encoding="utf-8"?>
<!-- Generator: Adobe Illustrator 23.0.1, SVG Export Plug-In . SVG Version: 6.00 Build 0)  -->
<svg version="1.1" id="Layer_1" xmlns="http://www.w3.org/2000/svg" xmlns:xlink="http://www.w3.org/1999/xlink" x="0px" y="0px"
	 viewBox="0 0 187.5 251.9" style="enable-background:new 0 0 187.5 251.9;" xml:space="preserve">
<style type="text/css">
	.st0{fill:#9ACAEC;}
	.st1{fill:#58595B;}
	.st2{font-family:'Helvetica';}
	.st3{font-size:47.3393px;}
	.st4{font-family:'HelveticaNeueLight';}
	.st5{font-size:21.3491px;}
</style>
<g>
	<path class="st0" d="M47.3,170.4H11l0-33.6H0l0,44.6h47.3 M176.5,11v132.4l-0.1,11l11.1,11V0l0,0H0v87.3l11-12.2V11H176.5"/>
	<polygon class="st0" points="0.4,103.4 54.7,49.1 106.1,101.6 106.1,84.5 141.9,84.7 142.9,136.8 187.4,181.1 170.1,181.1 
		131,141.3 131.2,94.7 117,94.7 117,126.5 53.9,63.4 0.4,117.9 	"/>
</g>
<g>
	<g>
		<text transform="matrix(1 0 0 1 5.0185 228.1545)" class="st1 st2 st3">KIOSKO</text>
	</g>
	<g>
		<text transform="matrix(1 0 0 1 23.3776 249.6506)" class="st1 st4 st5">INMOBILIARIO</text>
	</g>
</g>
</svg>
