<?xml version="1.0" encoding="utf-8"?>
<!-- Generator: Adobe Illustrator 23.0.1, SVG Export Plug-In . SVG Version: 6.00 Build 0)  -->
<svg version="1.1" id="Layer_1" xmlns="http://www.w3.org/2000/svg" xmlns:xlink="http://www.w3.org/1999/xlink" x="0px" y="0px"
	 viewBox="0 0 187.5 251.9" style="enable-background:new 0 0 187.5 251.9;" xml:space="preserve">
<style type="text/css">
	.st0{fill:#3B4C59;}
	.st1{fill:#9ACAEC;}
	.st2{font-family:'Helvetica';}
	.st3{font-size:47.3393px;}
	.st4{fill:#58595B;}
	.st5{font-family:'HelveticaNeueBold';}
	.st6{font-size:21.3491px;}
</style>
<polyline class="st0" points="47.3,170.4 11,170.4 11,136.8 0,136.8 0,181.4 47.3,181.4 "/>
<polyline class="st1" points="176.5,11 176.5,143.4 176.4,154.4 187.5,165.4 187.5,0 187.5,0 0,0 0,87.3 11,75.1 11,11 176.5,11 "/>
<polygon class="st0" points="0.4,103.4 54.7,49.1 106.1,101.6 106.1,84.5 141.9,84.7 142.9,136.8 187.4,181.1 170.1,181.1 
	131,141.3 131.2,94.7 117,94.7 117,126.5 53.9,63.4 0.4,117.9 "/>
<g>
	<g>
		<text transform="matrix(1 0 0 1 5.0185 228.1545)" class="st0 st2 st3">KIOSKO</text>
	</g>
	<g>
		<text transform="matrix(1 0 0 1 23.3776 249.6506)" class="st4 st5 st6">INMOBILIARIO</text>
	</g>
</g>
</svg>
