<?xml version="1.0" encoding="utf-8"?>
<!-- Generator: Adobe Illustrator 23.0.1, SVG Export Plug-In . SVG Version: 6.00 Build 0)  -->
<svg version="1.1" id="Layer_1" xmlns="http://www.w3.org/2000/svg" xmlns:xlink="http://www.w3.org/1999/xlink" x="0px" y="0px"
	 viewBox="0 0 8.6 8.6" style="enable-background:new 0 0 8.6 8.6;" xml:space="preserve">
<style type="text/css">
	.st0{fill:#3B4C59;}
	.st1{fill:#9ACAEC;}
</style>
<g>
	<path class="st0" d="M3.3,2.5c1,1,2,2,3,3c0,0,0,0,0.1-0.1C6.5,5.3,6.7,5.1,6.8,5C7,4.8,7.2,4.9,7.2,5.1c0.2,0.9,0.5,1.7,0.7,2.6
		c0,0,0,0.1,0,0.1C8,8,7.9,8.1,7.7,8.1C7.3,8,7,7.9,6.7,7.8C6.1,7.7,5.5,7.5,4.9,7.3c0,0,0,0,0,0C4.7,7.3,4.7,7.1,4.8,7
		C5,6.8,5.1,6.7,5.3,6.5c0,0,0,0,0.1-0.1c-1-1-2-2-3-3C2.2,3.5,2.1,3.6,2,3.7C2,3.8,1.9,3.9,1.8,4C1.7,4.1,1.5,4,1.4,3.8
		C1.3,3.2,1.1,2.6,0.9,1.9C0.8,1.7,0.8,1.4,0.7,1.1c0-0.1,0-0.2,0-0.2c0.1-0.1,0.2-0.1,0.2,0c0.9,0.2,1.8,0.5,2.7,0.7
		c0.2,0.1,0.2,0.2,0.1,0.4C3.6,2.1,3.5,2.3,3.3,2.5z"/>
	<g>
		<path class="st1" d="M8.1,0.5v7.6H0.5V0.5H8.1 M8.6,0H0v8.6h8.6V0L8.6,0z"/>
	</g>
</g>
</svg>
