<?xml version="1.0" encoding="utf-8"?>
<!-- Generator: Adobe Illustrator 23.0.1, SVG Export Plug-In . SVG Version: 6.00 Build 0)  -->
<svg version="1.1" id="Layer_1" xmlns="http://www.w3.org/2000/svg" xmlns:xlink="http://www.w3.org/1999/xlink" x="0px" y="0px"
	 viewBox="0 0 115.6 115.6" style="enable-background:new 0 0 115.6 115.6;" xml:space="preserve">
<style type="text/css">
	.st0{fill:#9ACAEC;}
	.st1{fill:#3C4D59;}
</style>
<g>
	<path class="st0" d="M57.8,0c32.2,0.1,58,26.3,57.8,58.2c-0.3,32.1-26.4,57.7-58.4,57.4C25.4,115.3-0.3,89.1,0,57.4
		C0.3,25.5,26.2,0,57.8,0z M7.2,57.8c0,27.9,22.7,50.5,50.8,50.6c27.6,0,50.3-22.8,50.4-50.5c0-27.8-22.8-50.7-50.4-50.6
		C29.9,7.3,7.2,29.9,7.2,57.8z"/>
	<path class="st1" d="M54.4,27.9c0-2.1,0-4.1,0-6.2c2.3,0,4.5,0,6.8,0c0,2.1,0,4.1,0,6.3c7.9,1,12.7,5.5,14.9,13
		c-3.1,1.3-6.2,2.5-9.2,3.8c-0.9-1.6-1.6-3.1-2.5-4.5c-1.9-2.8-5-4-8.2-3.1c-2.5,0.7-4.1,2.6-4.4,5.3c-0.3,2.4,0.7,4.3,3.1,5.4
		c3.4,1.6,6.9,2.8,10.3,4.3c2.4,1.1,4.9,2.2,7,3.8c3.8,2.8,5.5,6.8,5.7,11.5c0.3,7.5-3.3,14.1-10.5,16.9c-1.5,0.6-3.2,0.8-4.8,1.2
		c-0.4,0.1-0.8,0.2-1.3,0.2c0,2.7,0,5.3,0,8c-2.3,0-4.5,0-6.8,0c0-2.6,0-5.3,0-8.1c-5.3-0.5-9.7-2.5-12.9-6.8
		c-1.9-2.6-3.1-5.6-3.7-8.8c3.5-0.9,6.9-1.8,10.4-2.7c0.3,1.1,0.6,2.2,1,3.2c1.4,3.6,4,5.4,7.8,5.7c1.3,0.1,2.6,0,3.8-0.3
		c3.7-0.8,5.8-5.1,4.3-8.6c-0.6-1.4-1.8-2.3-3.1-2.8c-3.1-1.3-6.4-2.5-9.5-3.9c-2.6-1.2-5.2-2.3-7.4-4c-5.2-4.1-6.8-11.6-4.4-18.2
		c2.1-5.8,6.3-9.2,12.3-10.3C53.5,28.2,53.9,28.1,54.4,27.9z"/>
</g>
</svg>
