<?xml version="1.0" encoding="utf-8"?>
<!-- Generator: Adobe Illustrator 23.0.1, SVG Export Plug-In . SVG Version: 6.00 Build 0)  -->
<svg version="1.1" id="Layer_1" xmlns="http://www.w3.org/2000/svg" xmlns:xlink="http://www.w3.org/1999/xlink" x="0px" y="0px"
	 viewBox="0 0 60.9 78.6" style="enable-background:new 0 0 60.9 78.6;" xml:space="preserve">
<style type="text/css">
	.st0{fill:#9ACAEC;}
	.st1{fill:#3C4D59;}
</style>
<g>
	<path class="st0" d="M50,34.1l-34.2-22c-1.4-0.9-1.7-2.7-0.9-4l4.4-6.8c0.9-1.4,2.7-1.7,4-0.9l34.2,22c1.4,0.9,1.7,2.7,0.9,4
		L54,33.2C53.2,34.6,51.4,35,50,34.1z"/>
	<path class="st1" d="M22.1,46l-2.2-1c0,0,3-5.7,5.4-5.4c0,0,14.6,0.8,28,2.4c0,0,7.1-7.2,4.2-9.1l-1-0.3l1.7-2.9c0,0,4.5,2.6,2,7
		c0,0-2.8,8.3-8.4,7.3l-26.3-2.4L22.1,46z"/>
	<path class="st1" d="M4.6,78.3l-3.1-1.7c-1.3-0.7-1.8-2.4-1.1-3.8l14-25.9c0.7-1.3,2.4-1.8,3.8-1.1l3.1,1.7
		c1.3,0.7,1.8,2.4,1.1,3.8l-14,25.9C7.6,78.5,5.9,79,4.6,78.3z"/>
</g>
</svg>
