<?xml version="1.0" encoding="utf-8"?>
<!-- Generator: Adobe Illustrator 23.0.1, SVG Export Plug-In . SVG Version: 6.00 Build 0)  -->
<svg version="1.1" id="Layer_1" xmlns="http://www.w3.org/2000/svg" xmlns:xlink="http://www.w3.org/1999/xlink" x="0px" y="0px"
	 viewBox="0 0 73 93.7" style="enable-background:new 0 0 73 93.7;" xml:space="preserve">
<style type="text/css">
	.st0{fill:#9ACAEC;}
	.st1{fill:#3C4D59;}
</style>
<g>
	<path class="st0" d="M0,42.7C0,34.7,0,26.8,0,19c0.1-0.1,0.2-0.2,0.3-0.2c3.9,0,7.9-0.2,11.7,0.2c8.4,1,14.8,8.3,15,16.8
		c0.1,8.5,0,17,0.1,25.5c0,6.5,6.4,10.9,12.4,8.7c3.5-1.3,5.9-4.7,6-8.5c0-2.6,0-5.2,0-7.9c7.7,0,15.3,0,23.1,0c0,3,0.1,6,0,9
		c-0.8,15.3-11,27.3-25.9,30.4c-17.8,3.8-36-8.9-38.1-27C3.7,61,4.1,55.7,4,50.5c0-0.9,0-1.8,0-2.7C3.9,44.8,3,43.5,0,42.7z"/>
	<path class="st1" d="M44.9,39.4c0-0.8,0-1.4,0-2c0-6.3-0.2-12.5,0.1-18.8C45.5,8.4,54.1,0.3,64.3,0c2.6-0.1,5.2,0,7.9,0
		c0,7.8,0,15.4,0,23c-3.3,0.7-4.2,1.7-4.2,5.1c0,3.7,0,7.3,0,11.2c1.1,0,2,0,3,0c1.3,0,2,0.6,2,1.9c0,2,0,4,0,6
		c0,1.2-0.6,1.9-1.9,1.9c-9.8,0-19.6,0-29.4,0c-1.2,0-1.8-0.7-1.8-1.8c0-2.1,0-4.1,0-6.2c0-1.1,0.7-1.8,1.8-1.8
		C42.7,39.3,43.6,39.4,44.9,39.4z"/>
</g>
</svg>
