<?xml version="1.0" encoding="utf-8"?>
<!-- Generator: Adobe Illustrator 23.0.1, SVG Export Plug-In . SVG Version: 6.00 Build 0)  -->
<svg version="1.1" id="Layer_1" xmlns="http://www.w3.org/2000/svg" xmlns:xlink="http://www.w3.org/1999/xlink" x="0px" y="0px"
	 viewBox="0 0 105.2 116.8" style="enable-background:new 0 0 105.2 116.8;" xml:space="preserve">
<style type="text/css">
	.st0{fill:#FFFFFF;}
	.st1{fill:#9ACAEC;}
	.st2{fill:#3C4D59;}
</style>
<g>
	<g>
		<polygon class="st0" points="68.5,49 67.6,45.7 63.1,38.8 51.3,34.3 32.9,49 31.3,49 31.3,83.1 74.3,83.1 74.3,49 		"/>
		<g>
			<rect x="39.7" y="61.7" class="st1" width="11.6" height="21.4"/>
			<rect x="56.3" y="61.7" class="st1" width="11.3" height="11.3"/>
			<polygon class="st1" points="85.5,54.8 53.4,28 20.9,54.6 20.9,58.6 27.5,58.6 27.5,83.1 32.2,83.1 32.2,54.6 32.2,54.6 
				53.2,37.3 74.2,54.6 74,54.6 74,83.1 78.8,83.1 78.8,58.6 85.5,58.6 			"/>
		</g>
	</g>
	<path class="st2" d="M24.4,116.8c-1.5-9-2.8-17.3-4.3-26.1c8.7-1,17.2-1.9,26.5-3c-2.6,3.4-4.7,6.3-7,9.3
		c13.7,5.9,32.8,0.7,43.7-11.7C93.8,73.4,98.6,53.2,85.5,34c2.8-2.5,5.6-5,8.6-7.8c4.1,4.8,7.2,10.8,8.9,17.4
		c5.3,20.1,1.1,38-14,52.4c-15.3,14.7-33.6,18.3-53.8,11.9c-2.6-0.8-4-0.5-5.4,1.7C28.4,111.9,26.6,114,24.4,116.8z"/>
	<path class="st2" d="M19.2,82.7c-2.7,2.9-5.3,5.6-8,8.4C3.4,81.1-0.3,69.9,0,57.5C1,20.7,36-3.3,70.8,9.1c1.8,0.7,2.8,0.4,3.9-1.1
		c1.7-2.5,3.7-4.9,6.1-8c1.5,9.1,2.8,17.5,4.2,26.2c-8.7,1-17.2,1.9-26.4,3c2.4-3.3,4.5-6.1,6.6-9c-10.1-5.1-29.2-3-41.2,8.6
		C11.6,40.8,5.6,62.7,19.2,82.7z"/>
</g>
</svg>
