<?xml version="1.0" encoding="utf-8"?>
<!-- Generator: Adobe Illustrator 23.0.1, SVG Export Plug-In . SVG Version: 6.00 Build 0)  -->
<svg version="1.1" id="Layer_1" xmlns="http://www.w3.org/2000/svg" xmlns:xlink="http://www.w3.org/1999/xlink" x="0px" y="0px"
	 viewBox="0 0 47.4 47.7" style="enable-background:new 0 0 47.4 47.7;" xml:space="preserve">
<style type="text/css">
	.st0{fill:#9ACAEC;}
	.st1{fill:#3B4C59;}
</style>
<g>
	<path class="st0" d="M21.7,30c2.7-2.7,5.3-5.3,8-8c0.1,0.1,0.1,0.2,0.2,0.3c4,4,8,8,12,12c1.3,1.3,2.6,2.6,3.9,3.9
		c1.5,1.6,1.9,3.5,1.3,5.6c-0.6,2-2.1,3.3-4.1,3.8c-2,0.5-3.8-0.1-5.3-1.6c-5.2-5.2-10.5-10.5-15.7-15.7
		C21.9,30.1,21.8,30.1,21.7,30z M41.3,43.6c-0.1-0.2-0.2-0.4-0.3-0.5c-4.6-4.6-9.1-9.1-13.7-13.7c-0.1-0.1-0.1-0.1-0.2-0.2
		c-0.2-0.2-0.5-0.2-0.7,0c-0.2,0.2-0.3,0.5-0.1,0.7c0.1,0.1,0.1,0.2,0.2,0.3c4.5,4.5,9.1,9.1,13.6,13.6c0.1,0.1,0.2,0.2,0.3,0.3
		C40.8,44.4,41.3,44.1,41.3,43.6z M44,41c-0.2-0.2-0.3-0.4-0.4-0.6C39.1,36,34.7,31.5,30.2,27c-0.1-0.1-0.3-0.3-0.4-0.4
		c-0.3-0.2-0.6-0.2-0.8,0.1c-0.3,0.3-0.2,0.6,0.1,0.9c4.6,4.6,9.1,9.1,13.7,13.7c0.1,0.1,0.1,0.1,0.2,0.2c0.2,0.1,0.4,0.1,0.6,0.1
		C43.7,41.5,43.8,41.3,44,41z"/>
	<path class="st1" d="M17.9,21.8c1.7,1.7,3.4,3.4,5.1,5.1c-0.7,0.7-1.3,1.3-2,2c-0.2,0.2-0.4,0.4-0.6,0.6c-0.3,0.3-0.2,0.6,0,0.8
		c0.5,0.5,1,1,1.5,1.5c-0.4,0.5-0.8,0.9-1.2,1.3c-3.5,3.9-6.9,7.7-10.4,11.5c-1.3,1.4-3,2-5,1.8c-2.6-0.3-4.7-2.1-5.2-4.7
		c-0.4-2.1,0.1-4.1,1.7-5.6c2.9-2.7,5.9-5.4,8.9-8c2.3-2,4.5-4.1,6.7-6.1C17.7,22,17.8,21.9,17.9,21.8z M6,45c2.5,0,4.5-2,4.5-4.4
		c0-2.5-2-4.5-4.4-4.5s-4.5,2-4.5,4.5C1.6,43.1,3.6,45,6,45z"/>
	<path class="st1" d="M31.1,21.8c-0.3-0.3-0.6-0.7-0.9-1c-0.4-0.4-0.7-0.4-1,0c-0.8,0.8-1.5,1.5-2.3,2.3c-0.1,0.1-0.2,0.2-0.2,0.3
		c-1.7-1.7-3.3-3.3-5-5c0.7-0.6,1.4-1.2,2.1-1.9c2.4-2.1,4.7-4.3,7.1-6.4c0.3-0.2,0.3-0.5,0.3-0.8c-0.8-4.2,2-8.4,6.2-9.2
		c1.1-0.2,2.2-0.2,3.3,0.1c0.1,0,0.1,0.1,0.3,0.1c-0.5,0.5-0.9,0.9-1.3,1.3c-1.5,1.5-3.1,3.1-4.6,4.6c-0.4,0.4-0.4,0.7,0,1.1
		c1.4,1.4,2.9,2.9,4.4,4.4c0.5,0.5,0.7,0.5,1.1,0c1.9-1.9,3.8-3.8,5.7-5.7c0.1-0.1,0.2-0.2,0.3-0.3c0.1,0.5,0.2,1,0.2,1.4
		c0.3,4-2.2,7.4-6.1,8.3c-1.1,0.3-2.1,0.3-3.2,0.1c-0.4-0.1-0.6,0-0.8,0.3c-1.6,1.8-3.3,3.6-4.9,5.4C31.4,21.4,31.3,21.6,31.1,21.8z
		"/>
	<path class="st0" d="M25.7,24.2c-0.6,0.6-1.2,1.2-1.8,1.8c-0.1-0.1-0.2-0.2-0.3-0.3C17.8,19.9,11.9,14.1,6.1,8.2
		C5.9,8.1,5.7,7.9,5.5,7.8C4.3,7.4,3.2,7,2.1,6.5C2,6.5,1.8,6.3,1.7,6.2C1.2,5,0.6,3.8,0,2.6C0,2.4,0,2.3,0.1,2.1
		C0.7,1.6,1.3,1,1.8,0.4C2,0.3,2.1,0.3,2.2,0.3c1.2,0.6,2.5,1.1,3.7,1.7C6,2.1,6.2,2.2,6.2,2.4c0.4,1.1,0.9,2.3,1.3,3.4
		C7.6,6,7.8,6.2,8,6.4c5.8,5.8,11.6,11.6,17.4,17.4C25.5,24,25.6,24.1,25.7,24.2z"/>
	<path class="st1" d="M6,43.9c-1.8,0-3.3-1.5-3.3-3.3c0-1.8,1.5-3.3,3.3-3.3c1.8,0,3.3,1.5,3.2,3.3C9.3,42.4,7.8,43.9,6,43.9z"/>
</g>
</svg>
