<?xml version="1.0" encoding="utf-8"?>
<!-- Generator: Adobe Illustrator 23.0.1, SVG Export Plug-In . SVG Version: 6.00 Build 0)  -->
<svg version="1.1" id="Layer_1" xmlns="http://www.w3.org/2000/svg" xmlns:xlink="http://www.w3.org/1999/xlink" x="0px" y="0px"
	 viewBox="0 0 380.8 281.3" style="enable-background:new 0 0 380.8 281.3;" xml:space="preserve">
<style type="text/css">
	.st0{fill:#E8E9F4;}
	.st1{fill:url(#SVGID_1_);}
	.st2{fill:#3B4C59;}
</style>
<path class="st0" d="M371.2,281.6L9.1,281.1c-5.1,0-9.3-4.2-9.3-9.3L0.1,10.3C0.1,5.2,4.2,1,9.4,1l362.1,0.4c5.1,0,9.3,4.2,9.3,9.3
	l-0.3,261.5C380.5,277.4,376.3,281.6,371.2,281.6z"/>
<linearGradient id="SVGID_1_" gradientUnits="userSpaceOnUse" x1="188.1334" y1="-8.4586" x2="188.1334" y2="211.8078" gradientTransform="matrix(1 1.153214e-03 1.153214e-03 -1 1.9932 272.7163)">
	<stop  offset="0" style="stop-color:#FFFFFF"/>
	<stop  offset="0.2985" style="stop-color:#E5EDF6"/>
	<stop  offset="0.5744" style="stop-color:#D5E1F1"/>
	<stop  offset="0.7849" style="stop-color:#CFDDEF"/>
</linearGradient>
<polygon class="st1" points="356.7,137.4 356.7,122.2 340.2,122.1 340.2,100.3 313.4,100.3 313.4,113.3 299.1,113.3 299.2,61.3 
	242.5,61.2 242.5,94 228.1,94 228.1,71.2 169.2,71.1 169.2,93.9 138.2,93.9 138.2,61.1 81.6,61 81.5,113 67.2,113 67.3,100 
	40.5,100 40.4,121.8 23.9,121.8 23.9,137 -0.1,136.9 -0.3,281.1 23.7,281.2 28.3,281.2 40.3,281.2 56.8,281.2 67.1,281.2 
	81.3,281.2 95.6,281.2 138,281.3 168.9,281.3 211.3,281.4 227.9,281.4 242.3,281.4 284.7,281.5 298.9,281.5 313.2,281.5 
	323.5,281.5 340,281.5 352,281.5 356.5,281.5 380.5,281.6 380.7,137.4 "/>
<g>
	<path class="st2" d="M182.4,176.4c10.7-10.7,21-21,31.7-31.7c0.2,0.3,0.3,0.8,0.6,1.1c15.8,15.8,31.7,31.7,47.5,47.5
		c5.1,5.1,10.3,10.2,15.3,15.4c5.9,6.3,7.6,13.8,5,21.9c-2.5,8-8.1,13.1-16.3,14.9c-8,1.8-15-0.4-20.8-6.2
		c-20.7-20.7-41.4-41.4-62.1-62.1C183.1,176.8,182.7,176.6,182.4,176.4z M259.9,230c-0.4-0.6-0.8-1.4-1.3-1.9c-18-18-36-36-53.9-54
		c-0.2-0.2-0.4-0.5-0.7-0.7c-0.9-0.7-2.1-0.6-2.9,0.1c-0.9,0.8-1.1,1.9-0.5,2.9c0.2,0.4,0.5,0.7,0.9,1
		c17.9,17.9,35.8,35.8,53.7,53.7c0.4,0.4,0.8,0.8,1.2,1C257.8,233,259.7,231.9,259.9,230z M270.5,219.9c-0.7-0.9-1.1-1.7-1.7-2.3
		c-17.6-17.6-35.2-35.2-52.8-52.9c-0.5-0.5-1.1-1.1-1.7-1.6c-1-0.8-2.2-0.7-3.1,0.2c-1,1.1-0.9,2.3,0.4,3.6c18,18,36,36,54.1,54.1
		c0.2,0.2,0.4,0.5,0.6,0.6c0.8,0.2,1.7,0.5,2.4,0.2C269.4,221.5,269.8,220.7,270.5,219.9z"/>
	<path class="st2" d="M167.6,143.9c6.8,6.8,13.5,13.5,20.3,20.3c-2.6,2.6-5.3,5.3-8,8c-0.8,0.8-1.6,1.5-2.3,2.3
		c-1,1.1-0.9,2.3,0.1,3.3c1.9,2,3.9,3.9,6,5.9c-1.6,1.8-3.1,3.5-4.6,5.2c-13.7,15.2-27.4,30.4-41.2,45.5c-5.2,5.7-12,8-19.7,7.2
		c-10.4-1.1-18.4-8.3-20.5-18.6c-1.7-8.4,0.4-16,6.8-21.9c11.6-10.7,23.3-21.2,35-31.7c8.9-8,17.8-16.1,26.6-24.1
		C166.6,144.7,167.1,144.3,167.6,143.9z M120.7,235.6c9.7,0,17.6-7.8,17.6-17.4c0-9.8-7.8-17.7-17.5-17.7s-17.6,7.9-17.6,17.6
		C103.2,227.8,111,235.6,120.7,235.6z"/>
	<path class="st2" d="M219.5,144.1c-1.3-1.3-2.5-2.6-3.6-3.8c-1.5-1.6-2.6-1.6-4.1,0c-3,3-6,6-8.9,8.9c-0.3,0.3-0.6,0.8-0.8,1.1
		c-6.7-6.7-13.2-13.2-19.7-19.7c2.6-2.4,5.4-4.9,8.1-7.4c9.3-8.4,18.7-16.9,28-25.3c1-0.9,1.3-1.8,1-3.1
		c-3.3-16.5,7.9-33.1,24.5-36.2c4.4-0.8,8.8-0.8,13.2,0.3c0.3,0.1,0.5,0.2,1.1,0.4c-1.9,1.8-3.6,3.5-5.3,5.2
		c-6.1,6.1-12.2,12.2-18.3,18.3c-1.7,1.7-1.7,2.6,0,4.3c5.7,5.7,11.5,11.5,17.2,17.2c1.8,1.8,2.7,1.8,4.5,0c7.5-7.5,15-15,22.4-22.4
		c0.3-0.3,0.6-0.6,1.2-1.1c0.3,2,0.8,3.8,0.9,5.6c1.2,15.7-8.6,29.2-23.9,32.9c-4.2,1-8.4,1.1-12.6,0.2c-1.4-0.3-2.4,0-3.3,1.1
		c-6.4,7.2-12.9,14.3-19.4,21.4C220.9,142.6,220.3,143.3,219.5,144.1z"/>
	<path class="st2" d="M198.4,153.5c-2.5,2.5-4.8,4.8-7.2,7.2c-0.3-0.3-0.7-0.7-1.1-1c-23.1-23.1-46.2-46.2-69.3-69.2
		c-0.7-0.7-1.5-1.2-2.4-1.6c-4.4-1.8-8.9-3.4-13.3-5.2c-0.5-0.2-1.1-0.7-1.3-1.2c-2.3-4.8-4.5-9.6-6.7-14.4
		c-0.3-0.7-0.3-1.1,0.3-1.7c2.3-2.2,4.5-4.4,6.7-6.7c0.5-0.5,0.9-0.6,1.6-0.3c4.9,2.3,9.7,4.5,14.6,6.8c0.4,0.2,0.9,0.7,1.1,1.2
		c1.7,4.4,3.4,8.9,5.2,13.3c0.4,0.9,1,1.9,1.7,2.6c22.9,22.9,45.8,45.8,68.7,68.8C197.4,152.5,197.9,153,198.4,153.5z"/>
	<path class="st2" d="M120.7,231c-7.2,0-13-5.8-13-12.9c0-7.2,5.9-13,13.1-12.9c7.2,0,12.9,5.8,12.8,13.1
		C133.7,225.3,127.8,231.1,120.7,231z"/>
</g>
</svg>
