<?xml version="1.0" encoding="utf-8"?>
<!-- Generator: Adobe Illustrator 23.0.1, SVG Export Plug-In . SVG Version: 6.00 Build 0)  -->
<svg version="1.1" id="Layer_1" xmlns="http://www.w3.org/2000/svg" xmlns:xlink="http://www.w3.org/1999/xlink" x="0px" y="0px"
	 viewBox="0 0 117.9 127.9" style="enable-background:new 0 0 117.9 127.9;" xml:space="preserve">
<style type="text/css">
	.st0{fill:#3C4D59;}
	.st1{fill:#9ACAEC;}
</style>
<g>
	<path class="st0" d="M53.5,64.6c0.2,3.5,0.2,3.5-3.1,4.8c-2,0.7-4,1.4-5.9,2.2c-0.7,0.3-1.1,0.1-1.5-0.4c-1-1.4-2.1-2.8-3.2-4.1
		c-0.3-0.4-0.9-0.5-1.4-0.7c0,0-0.1,0-0.1,0c-1.6,0-3.5-0.4-4.8,0.2c-1.3,0.6-2.1,2.3-3.1,3.6c-0.3,0.4-0.5,0.8-0.9,1.1
		c-0.3,0.2-0.9,0.5-1.2,0.3c-2.9-1-5.7-2.1-8.5-3c-0.7-0.2-0.9-0.6-0.8-1.3c0.1-1.6,0.1-3.3,0.2-4.9c0.1-0.8-0.2-1.3-0.8-1.8
		c-3.7-3.1-3.6-3.1-8.4-2.1c-2.6,0.6-1.9,0.8-3.2-1.4c-1.3-2.2-2.5-4.4-3.8-6.5c-0.4-0.6-0.4-1.1,0.2-1.6c1.1-1.2,2.3-2.4,3.3-3.7
		c0.4-0.5,0.6-1.2,0.5-1.8c-0.2-1.7-0.2-3.6-1.1-4.8c-0.9-1.2-2.7-1.7-4.2-2.4c-1.3-0.6-1.8-1.3-1.4-2.8c0.6-2.5,1-5.1,1.4-7.7
		c0.1-0.9,0.5-1.2,1.4-1.3c1.6-0.2,3.3-0.4,4.9-0.7c0.5-0.1,0.9-0.6,1.4-0.9c0,0,0-0.1,0.1-0.1c0.8-1.5,2.1-2.9,2.2-4.4
		c0.1-1.5-1-3.1-1.7-4.5c-0.6-1.3-0.5-2.1,0.7-3c2.1-1.5,4-3.3,6-5c0.6-0.5,1.1-0.6,1.8-0.1c1.3,0.9,2.7,1.8,4.1,2.5
		c0.5,0.3,1.3,0.4,2,0.3c3.5-0.5,5.7-2.5,6.1-6.2c0-0.3,0.2-0.6,0.3-0.8c0.2-1,0.7-1.3,1.7-1.3c2.8,0.1,5.5,0,8.3,0
		c0.8,0,1.3,0.2,1.5,1.1c0.4,1.6,0.9,3.1,1.5,4.7c0.2,0.5,0.7,0.9,1.1,1.2c3.1,1.8,5.9,1.8,8.8-0.7c1.7-1.5,1.9-1.3,3.7,0.3
		c1.9,1.6,3.7,3.2,5.6,4.7c0.6,0.5,0.8,1,0.4,1.7c-0.4,0.7-0.5,1.6-0.9,2.2c-2.3,3.3,0,5.6,1.5,8.1c0.1,0.2,0.6,0.4,1,0.4
		c1.6,0.3,3.1,0.5,4.7,0.7c1,0.1,1.4,0.4,1.6,1.5c0.4,2.8,0.9,5.6,1.5,8.4c0.1,0.7-0.1,1.1-0.7,1.4c-1.5,0.8-3.1,1.5-4.6,2.4
		c-0.4,0.3-0.8,0.8-0.9,1.3c-0.3,1-0.3,2.1-0.6,3.1c-0.4,1.4,0,2.4,1,3.3c1,0.9,1.9,2.1,2.8,3c0.5,0.5,0.5,0.8,0.2,1.4
		c-1.5,2.5-3,5.1-4.4,7.6c-0.4,0.8-0.9,1-1.7,0.7c-1.6-0.4-3.2-0.8-4.8-1c-0.5-0.1-1.2,0.1-1.7,0.4c-0.9,0.6-1.6,1.4-2.4,2
		c-1,0.7-1.5,1.6-1.3,2.9C53.6,63.4,53.5,64,53.5,64.6z M58,35.7c-0.1-12-9.9-21.5-21.9-21.5C24.2,14.2,14.5,24.1,14.5,36
		c0.1,12.1,9.9,21.7,22,21.6C48.5,57.5,58,47.8,58,35.7z"/>
	<path class="st1" d="M98.8,120.9c0.2,3.5,0.2,3.5-3.1,4.8c-2,0.7-4,1.4-5.9,2.2c-0.7,0.3-1.1,0.1-1.5-0.4c-1-1.4-2.1-2.8-3.2-4.1
		c-0.3-0.4-0.9-0.5-1.4-0.7c0,0-0.1,0-0.1,0c-1.6,0-3.5-0.4-4.8,0.2c-1.3,0.6-2.1,2.3-3.1,3.6c-0.3,0.4-0.5,0.8-0.9,1.1
		c-0.3,0.2-0.9,0.5-1.2,0.3c-2.9-1-5.7-2.1-8.5-3c-0.7-0.2-0.9-0.6-0.8-1.3c0.1-1.6,0.1-3.3,0.2-4.9c0.1-0.8-0.2-1.3-0.8-1.8
		c-3.7-3.1-3.6-3.1-8.4-2.1c-2.6,0.6-1.9,0.8-3.2-1.4c-1.3-2.2-2.5-4.4-3.8-6.5c-0.4-0.6-0.4-1.1,0.2-1.6c1.1-1.2,2.3-2.4,3.3-3.7
		c0.4-0.5,0.6-1.2,0.5-1.8C51.9,98,51.9,96,51,94.8c-0.9-1.2-2.7-1.7-4.2-2.4c-1.3-0.6-1.8-1.3-1.4-2.8c0.6-2.5,1-5.1,1.4-7.7
		c0.1-0.9,0.5-1.2,1.4-1.3c1.6-0.2,3.3-0.4,4.9-0.7c0.5-0.1,0.9-0.6,1.4-0.9c0,0,0-0.1,0.1-0.1c0.8-1.5,2.1-2.9,2.2-4.4
		c0.1-1.5-1-3.1-1.7-4.5c-0.6-1.3-0.5-2.1,0.7-3c2.1-1.5,4-3.3,6-5c0.6-0.5,1.1-0.6,1.8-0.1c1.3,0.9,2.7,1.8,4.1,2.5
		c0.5,0.3,1.3,0.4,2,0.3c3.5-0.5,5.7-2.5,6.1-6.2c0-0.3,0.2-0.6,0.3-0.8c0.2-1,0.7-1.3,1.7-1.3c2.8,0.1,5.5,0,8.3,0
		c0.8,0,1.3,0.2,1.5,1.1c0.4,1.6,0.9,3.1,1.5,4.7c0.2,0.5,0.7,0.9,1.1,1.2c3.1,1.8,5.9,1.8,8.8-0.7c1.7-1.5,1.9-1.3,3.7,0.3
		c1.9,1.6,3.7,3.2,5.6,4.7c0.6,0.5,0.8,1,0.4,1.7c-0.4,0.7-0.5,1.6-0.9,2.2c-2.3,3.3,0,5.6,1.5,8.1c0.1,0.2,0.6,0.4,1,0.4
		c1.6,0.3,3.1,0.5,4.7,0.7c1,0.1,1.4,0.4,1.6,1.5c0.4,2.8,0.9,5.6,1.5,8.4c0.1,0.7-0.1,1.1-0.7,1.4c-1.5,0.8-3.1,1.5-4.6,2.4
		c-0.4,0.3-0.8,0.8-0.9,1.3c-0.3,1-0.3,2.1-0.6,3.1c-0.4,1.4,0,2.4,1,3.3c1,0.9,1.9,2.1,2.8,3c0.5,0.5,0.5,0.8,0.2,1.4
		c-1.5,2.5-3,5.1-4.4,7.6c-0.4,0.8-0.9,1-1.7,0.7c-1.6-0.4-3.2-0.8-4.8-1c-0.5-0.1-1.2,0.1-1.7,0.4c-0.9,0.6-1.6,1.4-2.4,2
		c-1,0.7-1.5,1.6-1.3,2.9C98.8,119.7,98.8,120.3,98.8,120.9z M103.2,92c-0.1-12-9.9-21.5-21.9-21.5c-11.9,0.1-21.6,9.9-21.5,21.9
		c0.1,12.1,9.9,21.7,22,21.6C93.8,113.9,103.3,104.1,103.2,92z"/>
</g>
</svg>
