<?xml version="1.0" encoding="utf-8"?>
<!-- Generator: Adobe Illustrator 23.0.1, SVG Export Plug-In . SVG Version: 6.00 Build 0)  -->
<svg version="1.1" id="Layer_1" xmlns="http://www.w3.org/2000/svg" xmlns:xlink="http://www.w3.org/1999/xlink" x="0px" y="0px"
	 viewBox="0 0 50 50" style="enable-background:new 0 0 50 50;" xml:space="preserve">
<style type="text/css">
	.st0{fill:#F95D5C;}
</style>
<g>
	<g>
		<path class="st0" d="M13.1,19.6c-2.6-0.3-2.6-0.3-2.6-2.8c0-0.9,0-1.9,0-2.8c0.1-2.3,1.3-3.6,3.7-3.6c1.2,0,2.3,0,3.4,0
			c0.2-0.3,0.3-0.4,0.3-0.5C17.6,6,19,5.7,22.1,5.8c3.2,0.1,6.3,0,9.5,0c2.7,0,3.4,0.7,3.5,3.4c0,0.3,0.1,0.6,0.1,1.2
			c0.9,0,1.8,0,2.7,0c2.3,0.1,3.6,1.3,3.7,3.6c0,0.9,0,1.9,0,2.8c0,2.5,0,2.5-2.6,2.8c0,0.6,0,1.1,0,1.7c0,6,0,12,0,18
			c0,3.4-1.5,4.9-4.8,4.9c-5.4,0-10.9,0-16.3,0c-3.1,0-4.7-1.5-4.7-4.7c0-6,0-12,0-18C13.1,20.9,13.1,20.3,13.1,19.6z M15.2,19.5
			c0,0.7,0,1.2,0,1.6c0,6,0,12,0,18c0,2.3,0.7,3,3,3c5.2,0,10.5,0,15.7,0c2.3,0,3-0.7,3-3c0-6.1,0-12.1,0-18.2c0-0.5-0.1-1-0.1-1.5
			C29.5,19.5,22.5,19.5,15.2,19.5z M39.4,17.2c0-0.9,0-1.7,0-2.5c0-1.9-0.3-2.2-2.3-2.2c-2.4,0-4.9,0-7.3,0c-5.1,0-10.1,0-15.2,0
			c-1,0-1.9,0.1-2,1.2c-0.1,1.1,0,2.3,0,3.5C21.6,17.2,30.4,17.2,39.4,17.2z M32.7,10.3C33,7.9,33,7.9,30.9,7.9c-3,0-6,0-9,0
			c-2.1,0-2.2,0.1-1.8,2.4C24.3,10.3,28.5,10.3,32.7,10.3z"/>
		<path class="st0" d="M18.6,36.9L18.6,36.9c-0.8,0-1.4-0.6-1.4-1.3V24.3c0-0.7,0.6-1.3,1.3-1.3h0.1c0.7,0,1.3,0.6,1.3,1.3v11.3
			C19.9,36.3,19.3,36.9,18.6,36.9z"/>
		<path class="st0" d="M26,36.9L26,36.9c-0.8,0-1.4-0.6-1.4-1.3V24.3c0-0.7,0.6-1.3,1.3-1.3H26c0.7,0,1.3,0.6,1.3,1.3v11.3
			C27.4,36.3,26.8,36.9,26,36.9z"/>
		<path class="st0" d="M33.5,36.9L33.5,36.9c-0.8,0-1.4-0.6-1.4-1.3V24.3c0-0.7,0.6-1.3,1.3-1.3h0.1c0.7,0,1.3,0.6,1.3,1.3v11.3
			C34.8,36.3,34.2,36.9,33.5,36.9z"/>
	</g>
</g>
</svg>
