<?xml version="1.0" encoding="utf-8"?>
<!-- Generator: Adobe Illustrator 23.0.1, SVG Export Plug-In . SVG Version: 6.00 Build 0)  -->
<svg version="1.1" id="Layer_1" xmlns="http://www.w3.org/2000/svg" xmlns:xlink="http://www.w3.org/1999/xlink" x="0px" y="0px"
	 viewBox="0 0 50 50" style="enable-background:new 0 0 50 50;" xml:space="preserve">
<style type="text/css">
	.st0{fill:#9BCBED;}
</style>
<g>
	<path class="st0" d="M35.1,33.8c-0.6-0.4-1.2-0.7-1.7-1.1c-0.8-0.6-0.8-1.3,0-1.8c2.4-1.3,4.8-2.6,7.3-3.9c0.8-0.4,1.5,0,1.5,0.9
		c0,2.7-0.1,5.4-0.3,8.2c-0.1,1.1-0.7,1.4-1.7,0.8c-0.6-0.3-1.2-0.7-1.8-1.1c-2.1,2.4-4.6,4.2-7.5,5.3C21.2,44.6,10.6,38.9,8.3,29
		c-0.2-0.9-0.3-1.8,0.6-2.5c1.1-0.9,2.7-0.3,3,1.3c0.6,2.4,1.6,4.5,3.3,6.3C20.4,39.9,30.1,39.9,35.1,33.8z"/>
	<path class="st0" d="M15,16.1c0.6,0.4,1,0.6,1.5,0.9c1,0.7,1,1.4,0,2c-2.3,1.3-4.7,2.5-7,3.7c-0.9,0.5-1.6,0.1-1.6-1
		c0.1-2.7,0.1-5.4,0.2-8.1c0-1,0.8-1.4,1.7-0.9c0.6,0.4,1.2,0.8,1.6,1c1.8-1.4,3.4-2.9,5.2-3.9C26.4,4.4,39,9.9,41.7,20.8
		c0.1,0.3,0.2,0.6,0.2,1c0.1,1-0.5,1.8-1.5,2c-0.9,0.2-1.8-0.3-2.1-1.2c-0.1-0.3-0.2-0.6-0.3-1c-2.5-10-14.9-13.5-22.3-6.4
		C15.5,15.5,15.3,15.8,15,16.1z"/>
</g>
</svg>
