<?xml version="1.0" encoding="utf-8"?>
<!-- Generator: Adobe Illustrator 23.0.1, SVG Export Plug-In . SVG Version: 6.00 Build 0)  -->
<svg version="1.1" id="Layer_1" xmlns="http://www.w3.org/2000/svg" xmlns:xlink="http://www.w3.org/1999/xlink" x="0px" y="0px"
	 viewBox="0 0 380.8 281.3" style="enable-background:new 0 0 380.8 281.3;" xml:space="preserve">
<style type="text/css">
	.st0{fill:#E8E9F4;}
	.st1{fill:url(#SVGID_1_);}
	.st2{fill:#3B4C59;}
</style>
<path class="st0" d="M371.2,281.6L9.1,281.1c-5.1,0-9.3-4.2-9.3-9.3L0.1,10.3C0.1,5.2,4.2,1,9.4,1l362.1,0.4c5.1,0,9.3,4.2,9.3,9.3
	l-0.3,261.5C380.5,277.4,376.3,281.6,371.2,281.6z"/>
<linearGradient id="SVGID_1_" gradientUnits="userSpaceOnUse" x1="187.9802" y1="24.6687" x2="187.9802" y2="-195.5978" gradientTransform="matrix(1 1.153214e-03 -1.153214e-03 1 2.165 256.5064)">
	<stop  offset="0" style="stop-color:#FFFFFF"/>
	<stop  offset="0.2985" style="stop-color:#E5EDF6"/>
	<stop  offset="0.5744" style="stop-color:#D5E1F1"/>
	<stop  offset="0.7849" style="stop-color:#CFDDEF"/>
</linearGradient>
<polygon class="st1" points="356.7,137.4 356.7,122.2 340.2,122.1 340.2,100.3 313.4,100.3 313.4,113.3 299.1,113.3 299.2,61.3 
	242.5,61.2 242.5,94 228.1,94 228.1,71.2 169.2,71.1 169.2,93.9 138.2,93.9 138.2,61.1 81.6,61 81.5,113 67.2,113 67.3,100 
	40.5,100 40.4,121.8 23.9,121.8 23.9,137 -0.1,136.9 -0.3,281.1 23.7,281.2 28.3,281.2 40.3,281.2 56.8,281.2 67.1,281.2 
	81.3,281.2 95.6,281.2 138,281.3 168.9,281.3 211.3,281.4 227.9,281.4 242.3,281.4 284.7,281.5 298.9,281.5 313.2,281.5 
	323.5,281.5 340,281.5 352,281.5 356.5,281.5 380.5,281.6 380.7,137.4 "/>
<path class="st2" d="M190,248c-25.5,0-51,0-76.5,0c-19.7,0-33.3-13.3-33.5-33.1c-0.2-12.8-0.1-25.7,0-38.5c0-7.6,2.7-10.3,10.2-10.4
	c3.7,0,7.3,0,11,0c7.5,0.1,10.1,2.8,10.2,10.4c0.1,6.5,0,13,0,19.5c0.1,13.5,6.1,19.6,19.5,19.6c39.7,0,79.3,0,119,0
	c12.8,0,19.1-6.3,19.2-18.9c0.1-6.8,0-13.7,0-20.5c0.1-7.3,2.8-10,10-10.1c4.3,0,8.7-0.1,13,0c4.9,0.2,8.2,2.9,8.2,7.6
	c0.1,15.5,0.6,31-0.5,46.4c-1.2,16.3-15,27.7-31.2,27.8C242.3,248,216.2,248,190,248z"/>
<path class="st2" d="M174.6,91.5c-12,12.4-22.9,23.8-33.9,35.2c-7.4,7.7-10.2,7.7-17.5,0.2c-2.7-2.8-5.4-5.5-7.9-8.3
	c-3.9-4.3-4-8.7-0.1-12.9c21.1-22.2,42.3-44.4,63.7-66.4c5.9-6.1,16.7-6.1,22.7,0c21.4,22,42.6,44.1,63.7,66.3
	c3.9,4.1,3.7,8.6-0.1,12.9c-3.2,3.6-6.6,7-10,10.5c-4.5,4.6-8.8,4.6-13.3-0.1c-10.4-10.8-20.8-21.6-31.2-32.4
	c-1.2-1.3-2.2-2.9-3.3-4.3c-0.5,0.2-1,0.4-1.5,0.7c0,1.7,0,3.4,0,5.2c0,24.8,0,49.7,0,74.5c0,7.3-2.6,9.9-9.8,10c-4,0.1-8,0.1-12,0
	c-6.7-0.2-9.3-2.9-9.3-9.5c0-25,0-50,0-75C174.6,96.2,174.6,94.6,174.6,91.5z"/>
</svg>
