<?xml version="1.0" encoding="utf-8"?>
<!-- Generator: Adobe Illustrator 23.0.1, SVG Export Plug-In . SVG Version: 6.00 Build 0)  -->
<svg version="1.1" id="Layer_1" xmlns="http://www.w3.org/2000/svg" xmlns:xlink="http://www.w3.org/1999/xlink" x="0px" y="0px"
	 viewBox="0 0 47.4 47.7" style="enable-background:new 0 0 47.4 47.7;" xml:space="preserve">
<style type="text/css">
	.st0{fill:#3B4C59;}
	.st1{fill:none;stroke:#3B4C59;stroke-width:0.734;stroke-miterlimit:10;}
	.st2{fill:none;stroke:#9ACAEC;stroke-width:0.7917;stroke-miterlimit:10;}
	.st3{fill:#9ACAEC;}
</style>
<g>
	<g>
		<path class="st0" d="M43.8,3.1v40.3H3.5V3.1H43.8 M44,2.4H3.3C3,2.4,2.8,2.6,2.8,2.9v40.7c0,0.3,0.2,0.5,0.5,0.5H44
			c0.3,0,0.5-0.2,0.5-0.5V2.9C44.6,2.6,44.3,2.4,44,2.4L44,2.4z"/>
	</g>
	<g>
		<g>
			<path class="st0" d="M26.3,5.9v34.4H6.9V5.9H26.3 M26.5,5.2H6.7c-0.3,0-0.5,0.2-0.5,0.5v34.8c0,0.3,0.2,0.5,0.5,0.5h19.8
				c0.3,0,0.5-0.2,0.5-0.5V5.8C27,5.5,26.7,5.2,26.5,5.2L26.5,5.2z"/>
		</g>
	</g>
	<g>
		<g>
			<path class="st0" d="M41.3,6.1v12h-9.3v-12H41.3 M41.4,5.4h-9.7c-0.3,0-0.6,0.3-0.6,0.6v12.3c0,0.3,0.3,0.6,0.6,0.6h9.7
				c0.3,0,0.6-0.3,0.6-0.6V6C42,5.7,41.7,5.4,41.4,5.4L41.4,5.4z"/>
		</g>
	</g>
	<g>
		<g>
			<path class="st0" d="M41.3,21.2v19.7H32V21.2H41.3 M41.4,20.5h-9.6c-0.3,0-0.6,0.3-0.6,0.6v20c0,0.3,0.3,0.6,0.6,0.6h9.6
				c0.3,0,0.6-0.3,0.6-0.6V21C42,20.7,41.7,20.5,41.4,20.5L41.4,20.5z"/>
		</g>
	</g>
	<line class="st1" x1="29.2" y1="3" x2="29.2" y2="43.3"/>
	<line class="st2" x1="12.7" y1="8.2" x2="8.4" y2="14.4"/>
	<line class="st2" x1="13.2" y1="11.3" x2="10.3" y2="15.2"/>
	<g>
		<path class="st3" d="M31.3,33c1-0.8,2-1.6,3.1-2.4c0.3,0.4,0.6,0.8,0.9,1.2c0.1,0.1,0.2,0.2,0.3,0.3c0.1,0.2,0.3,0.2,0.4,0
			c0.3-0.2,0.6-0.5,0.9-0.7c0.2,0.2,0.4,0.5,0.6,0.7c1.8,2.1,3.6,4.2,5.4,6.3c0.7,0.8,0.9,1.7,0.6,2.8c-0.3,1.4-1.4,2.3-2.8,2.4
			c-1.2,0.1-2.1-0.3-2.8-1.3c-1.2-1.7-2.4-3.5-3.6-5.2c-0.9-1.3-1.8-2.7-2.8-4C31.4,33.1,31.4,33,31.3,33z M42.8,40.8
			c0.2-1.3-0.7-2.5-2-2.7c-1.3-0.2-2.5,0.7-2.7,2c-0.2,1.3,0.7,2.5,2,2.7C41.4,43,42.6,42.1,42.8,40.8z"/>
		<path class="st3" d="M32.3,26c-0.2,0.2-0.4,0.3-0.6,0.4c-0.2,0.2-0.3,0.3-0.1,0.5c0.3,0.5,0.7,0.9,1,1.3c0,0,1.8,2.5,1.8,2.5
			c-1,0.8-2,1.5-3,2.3c-0.2-0.3-2.2-3.2-2.5-3.6c-1-1.4-1.9-2.8-2.9-4.2c-0.1-0.1-0.2-0.2-0.4-0.2c-2.3,0.2-4.3-1.6-4.4-3.9
			c0-0.6,0-1.2,0.3-1.8c0,0,0-0.1,0.1-0.1c0.2,0.3,0.4,0.5,0.6,0.8c0.7,0.9,1.4,1.8,2.1,2.8c0.2,0.3,0.3,0.3,0.6,0.1
			c0.9-0.7,1.7-1.3,2.6-2c0.3-0.2,0.3-0.3,0.1-0.6c-0.9-1.1-1.7-2.3-2.6-3.4c0,0-0.1-0.1-0.1-0.2c0.3,0,0.5,0,0.8,0
			c2.1,0.1,3.8,1.7,4,3.8c0.1,0.6,0,1.1-0.2,1.7c-0.1,0.2,0,0.3,0.1,0.5c0.9,1,1.7,2,2.5,3C32.1,25.8,32.2,25.9,32.3,26z"/>
		<path class="st3" d="M42.2,40.7c-0.1,1-1,1.6-2,1.5c-1-0.1-1.6-1-1.5-2c0.1-1,1-1.6,2-1.5C41.6,38.9,42.3,39.8,42.2,40.7z"/>
	</g>
</g>
</svg>
