<?xml version="1.0" encoding="utf-8"?>
<!-- Generator: Adobe Illustrator 23.0.1, SVG Export Plug-In . SVG Version: 6.00 Build 0)  -->
<svg version="1.1" id="Layer_1" xmlns="http://www.w3.org/2000/svg" xmlns:xlink="http://www.w3.org/1999/xlink" x="0px" y="0px"
	 viewBox="0 0 380.8 281.3" style="enable-background:new 0 0 380.8 281.3;" xml:space="preserve">
<style type="text/css">
	.st0{fill:#E8E9F4;}
	.st1{fill:url(#SVGID_1_);}
	.st2{fill:#3B4C59;}
</style>
<path class="st0" d="M371.2,281.6L9.1,281.1c-5.1,0-9.3-4.2-9.3-9.3L0.1,10.3C0.1,5.2,4.2,1,9.4,1l362.1,0.4c5.1,0,9.3,4.2,9.3,9.3
	l-0.3,261.5C380.5,277.4,376.3,281.6,371.2,281.6z"/>
<linearGradient id="SVGID_1_" gradientUnits="userSpaceOnUse" x1="188.161" y1="256.8727" x2="188.161" y2="477.1392" gradientTransform="matrix(1 1.153214e-03 1.153214e-03 -1 1.6596 538.0477)">
	<stop  offset="0" style="stop-color:#FFFFFF"/>
	<stop  offset="0.2985" style="stop-color:#E5EDF6"/>
	<stop  offset="0.5744" style="stop-color:#D5E1F1"/>
	<stop  offset="0.7849" style="stop-color:#CFDDEF"/>
</linearGradient>
<polygon class="st1" points="356.7,137.4 356.7,122.2 340.2,122.1 340.2,100.3 313.4,100.3 313.4,113.3 299.1,113.3 299.2,61.3 
	242.5,61.2 242.5,94 228.1,94 228.1,71.2 169.2,71.1 169.2,93.9 138.2,93.9 138.2,61.1 81.6,61 81.5,113 67.2,113 67.3,100 
	40.5,100 40.4,121.8 23.9,121.8 23.9,137 -0.1,136.9 -0.3,281.1 23.7,281.2 28.3,281.2 40.3,281.2 56.8,281.2 67.1,281.2 
	81.3,281.2 95.6,281.2 138,281.3 168.9,281.3 211.3,281.4 227.9,281.4 242.3,281.4 284.7,281.5 298.9,281.5 313.2,281.5 
	323.5,281.5 340,281.5 352,281.5 356.5,281.5 380.5,281.6 380.7,137.4 "/>
<g>
	<g>
		<path class="st2" d="M240.4,221.2l-7.8,8.9l0-0.4c-6.1,10.6-17.6,17.8-30.7,17.8l-0.4,0c-9.4-0.1-18.2-3.8-24.8-10.5
			c-6.6-6.7-10.3-15.6-10.3-25c0-9.4,3.7-18.3,10.4-25c0.1-0.1,0.2-0.1,0.2-0.2c-2.9-1.8-4.9-4.4-5.3-8c-0.5-6,0.5-11.5,4.1-16.8
			c4-6,7-12.6,10.4-19c0.4-0.8,0.8-1.8,1.5-2.3c7-5.4,8.6-13,8.3-21.2c-0.1-1.7-1-4-2.3-4.7c-2.4-1.4-2.3-3.2-2.3-5.3
			c0.2-8.2,0.2-16.4-2.2-24.4c-4.8-15.5-18.3-25.4-36.2-26.4c-24.5-1.4-41.5,13.3-43.4,37.8c-0.4,4.6-0.3,9.3-0.3,14
			c0,1.7-0.3,2.9-1.9,4c-1.2,0.9-2.4,2.7-2.5,4.2c-0.5,8.4,0.9,16.2,8.1,21.8c0.5,0.4,1,0.9,1.2,1.5c2.9,8.4,8,15.6,12.5,23.1
			c4.6,7.7,4.9,20.1-7.1,23.9c-1.3,0.4-2.5,1.1-3.7,1.6c-18.3,7.2-36.6,14.5-54.9,21.7c-4.5,1.8-5.8,3.6-5.8,8.4
			c0,7.7,0,15.5,0,23.2c0,6.9,2.6,9.5,9.5,9.5c28.5,0,57.1,0,85.7,0c28.7,0,57.3,0,86.2,0.1c6.2,0,9-2.8,9-9.1c0-8,0-16.1,0-24.1
			c0-2-0.4-3.6-1.2-4.8C243.4,217.4,242.1,219.3,240.4,221.2z"/>
	</g>
	<g>
		<path class="st2" d="M259.1,218.6c-4.7-5.1-6.9-10.8-5.6-17.5c0.6-3.1,1.5-6,2.2-9c0.6-2.5-1.5-4.9-4.1-4.7
			c-2.3,0.1-4.5,0.2-6.8,0.1c-2.9-0.2-4.9,2.1-4.2,4.9c0.8,3.1,1.8,6.2,2.3,9.5c1,6.6-1.1,12.1-5.6,17.3
			c-2.2-27.6-8.2-34.9-34.3-41.6c4.7-4.4,9-9.2,15.5-10.1c3-0.5,6.2,0.8,9.3,1.4c1.6,0.3,3.2,1,4.7,0.6c4.7-1,9.4-2.3,14.1-3.4
			c1.2-0.3,2.5-0.2,3.6,0.1c4.9,1.1,9.6,2.5,14.5,3.6c1,0.3,2.5,0.1,3.2-0.5c4.8-3.4,9.8-3.2,14.5-0.4c3.9,2.3,7.3,5.3,10.9,8.6
			c-10.5,1.3-19.4,5.3-26.1,13.4C260.6,198.9,258.2,208.2,259.1,218.6z M255.2,177.1c0.1-3.7-3-7.1-6.7-7.3c-4-0.2-7.4,2.9-7.5,6.8
			c-0.1,3.8,2.9,7,6.7,7.2C251.7,184.1,255.1,181,255.2,177.1z"/>
		<path class="st2" d="M232.8,213.4c-0.1,17.1-14,30.9-31.2,30.7c-16.9-0.2-30.6-14-30.6-31s14.2-31.2,31.1-31
			C219.3,182.3,232.9,196.2,232.8,213.4z M178.9,213.1c-0.1,12.9,10.3,23.3,23.1,23.3c12.6,0,23-10.3,23.1-23
			c0.2-12.7-10.4-23.3-23.2-23.3C189.2,190.1,178.9,200.3,178.9,213.1z"/>
		<path class="st2" d="M263.5,213.2c0-17.1,13.9-31.1,31-31.1c17.1,0.1,31,14.1,30.9,31.2c-0.1,16.9-13.9,30.8-30.8,30.8
			C277.2,244.2,263.5,230.5,263.5,213.2z M317.4,213.7c0.2-12.9-9.9-23.4-22.8-23.6c-12.7-0.1-23,9.9-23.4,22.7
			c-0.4,12.6,10.1,23.4,22.9,23.6C306.7,236.6,317.2,226.4,317.4,213.7z"/>
		<path class="st2" d="M253.3,176.8c-2.5,1.8-3.8,3.4-5.1,3.4c-1.2,0-3.4-2.1-3.2-3c0.2-1.4,1.8-3.4,3.1-3.7
			C249.2,173.4,250.8,175.1,253.3,176.8z"/>
		<path class="st2" d="M211.7,198c-14.2-2.7-23.5,2.5-27.4,16.5c-3.1-5.4,0.5-13.8,6.9-17.9C198,192.1,207.6,192.4,211.7,198z"/>
		<path class="st2" d="M303.9,198c-14.2-2.7-23.5,2.5-27.4,16.6c-3.1-5.4,0.5-13.8,6.9-18C290.1,192.1,299.7,192.4,303.9,198z"/>
	</g>
</g>
</svg>
