<?xml version="1.0" encoding="utf-8"?>
<!-- Generator: Adobe Illustrator 23.0.1, SVG Export Plug-In . SVG Version: 6.00 Build 0)  -->
<svg version="1.1" id="Layer_1" xmlns="http://www.w3.org/2000/svg" xmlns:xlink="http://www.w3.org/1999/xlink" x="0px" y="0px"
	 viewBox="0 0 380.8 281.3" style="enable-background:new 0 0 380.8 281.3;" xml:space="preserve">
<style type="text/css">
	.st0{fill:#E8E9F4;}
	.st1{fill:url(#SVGID_1_);}
	.st2{fill:#3B4C59;}
</style>
<path class="st0" d="M371.2,281.6L9.1,281.1c-5.1,0-9.3-4.2-9.3-9.3L0.1,10.3C0.1,5.2,4.2,1,9.4,1l362.1,0.4c5.1,0,9.3,4.2,9.3,9.3
	l-0.3,261.5C380.5,277.4,376.3,281.6,371.2,281.6z"/>
<linearGradient id="SVGID_1_" gradientUnits="userSpaceOnUse" x1="187.9802" y1="24.6687" x2="187.9802" y2="-195.5978" gradientTransform="matrix(1 1.153214e-03 -1.153214e-03 1 2.165 256.5064)">
	<stop  offset="0" style="stop-color:#FFFFFF"/>
	<stop  offset="0.2985" style="stop-color:#E5EDF6"/>
	<stop  offset="0.5744" style="stop-color:#D5E1F1"/>
	<stop  offset="0.7849" style="stop-color:#CFDDEF"/>
</linearGradient>
<polygon class="st1" points="356.7,137.4 356.7,122.2 340.2,122.1 340.2,100.3 313.4,100.3 313.4,113.3 299.1,113.3 299.2,61.3 
	242.5,61.2 242.5,94 228.1,94 228.1,71.2 169.2,71.1 169.2,93.9 138.2,93.9 138.2,61.1 81.6,61 81.5,113 67.2,113 67.3,100 
	40.5,100 40.4,121.8 23.9,121.8 23.9,137 -0.1,136.9 -0.3,281.1 23.7,281.2 28.3,281.2 40.3,281.2 56.8,281.2 67.1,281.2 
	81.3,281.2 95.6,281.2 138,281.3 168.9,281.3 211.3,281.4 227.9,281.4 242.3,281.4 284.7,281.5 298.9,281.5 313.2,281.5 
	323.5,281.5 340,281.5 352,281.5 356.5,281.5 380.5,281.6 380.7,137.4 "/>
<g>
	<path class="st2" d="M207.2,182.3c-7.3-7.8-10.6-16.6-8.6-26.9c0.9-4.7,2.3-9.3,3.4-13.9c1-3.9-2.3-7.6-6.3-7.3
		c-3.5,0.2-7,0.3-10.5,0.1c-4.4-0.3-7.6,3.2-6.5,7.5c1.2,4.8,2.8,9.6,3.5,14.6c1.6,10.1-1.7,18.7-8.7,26.7
		c-3.4-42.5-12.6-53.7-52.9-64.1c7.3-6.7,13.9-14.1,23.8-15.6c4.6-0.7,9.5,1.3,14.3,2.1c2.4,0.4,4.9,1.5,7.2,1
		c7.3-1.5,14.5-3.5,21.7-5.2c1.8-0.4,3.8-0.3,5.6,0.1c7.5,1.7,14.8,3.8,22.3,5.5c1.6,0.4,3.8,0.2,5-0.7c7.4-5.2,15.1-4.9,22.4-0.6
		c6,3.6,11.3,8.2,16.8,13.2c-16.2,2-29.9,8.2-40.2,20.7C209.4,151.9,205.7,166.3,207.2,182.3z M201.2,118.3
		c0.2-5.7-4.6-10.9-10.3-11.2c-6.1-0.3-11.4,4.5-11.6,10.5c-0.2,5.8,4.5,10.8,10.3,11.1C195.8,129.1,201,124.4,201.2,118.3z"/>
	<path class="st2" d="M166.7,174.3c-0.1,26.4-21.6,47.6-48.1,47.3c-26.1-0.3-47.2-21.5-47.2-47.7c0-26.2,21.8-48,47.9-47.7
		C145.8,126.4,166.8,147.8,166.7,174.3z M83.7,173.7c-0.1,19.9,15.8,35.9,35.6,35.9c19.4,0,35.4-15.9,35.6-35.4
		c0.3-19.6-16-35.9-35.7-35.9C99.5,138.4,83.7,154.1,83.7,173.7z"/>
	<path class="st2" d="M213.9,174c0-26.4,21.4-47.9,47.7-47.9c26.3,0.1,47.7,21.7,47.6,48c-0.1,26.1-21.4,47.4-47.5,47.4
		C235,221.6,213.9,200.6,213.9,174z M297,174.7c0.3-19.9-15.3-36.1-35.1-36.3c-19.5-0.2-35.5,15.3-36.1,34.9
		c-0.6,19.4,15.6,36.1,35.3,36.4C280.5,209.9,296.7,194.2,297,174.7z"/>
	<path class="st2" d="M198.2,117.9c-3.8,2.7-5.8,5.3-7.9,5.3c-1.8,0-5.2-3.2-5-4.6c0.3-2.2,2.8-5.3,4.8-5.7
		C191.9,112.6,194.3,115.3,198.2,117.9z"/>
	<path class="st2" d="M134.2,150.5c-21.9-4.2-36.2,3.8-42.2,25.4c-4.8-8.3,0.7-21.2,10.6-27.6C113,141.5,127.8,141.9,134.2,150.5z"
		/>
	<path class="st2" d="M276.2,150.5c-21.9-4.2-36.2,3.8-42.2,25.5c-4.8-8.3,0.7-21.2,10.6-27.7C254.9,141.5,269.7,141.9,276.2,150.5z
		"/>
</g>
</svg>
