<?xml version="1.0" encoding="utf-8"?>
<!-- Generator: Adobe Illustrator 23.0.1, SVG Export Plug-In . SVG Version: 6.00 Build 0)  -->
<svg version="1.1" id="Layer_1" xmlns="http://www.w3.org/2000/svg" xmlns:xlink="http://www.w3.org/1999/xlink" x="0px" y="0px"
	 viewBox="0 0 50 50" style="enable-background:new 0 0 50 50;" xml:space="preserve">
<style type="text/css">
	.st0{fill:#9BCBED;}
	.st1{fill:#FFFFFF;}
</style>
<g>
	<path class="st0" d="M49.5,25c0-13.6-11-24.6-24.5-24.6C11.4,0.4,0.5,11.4,0.5,25c0,12.3,9,22.4,20.7,24.3V32.1h-6.2V25h6.2v-5.4
		c0-6.2,3.7-9.6,9.3-9.6c2.7,0,5.5,0.5,5.5,0.5v6.1h-3.1c-3,0-4,1.9-4,3.8V25h6.8l-1.1,7.1h-5.7v17.2C40.6,47.4,49.5,37.3,49.5,25z"
		/>
	<path class="st1" d="M34.6,32.1l1.1-7.1h-6.8v-4.6c0-1.9,1-3.8,4-3.8h3.1v-6.1c0,0-2.8-0.5-5.5-0.5c-5.6,0-9.3,3.4-9.3,9.6V25h-6.2
		v7.1h6.2v17.2c1.2,0.2,2.5,0.3,3.8,0.3c1.3,0,2.6-0.1,3.8-0.3V32.1H34.6z"/>
</g>
<g>
	<ellipse class="st0" cx="25" cy="25" rx="24.5" ry="24.6"/>
	<g id="XMLID_468_">
		<path id="XMLID_469_" class="st1" d="M33.3,27.6c-0.1,0-2.6-1.3-3-1.4c-0.2-0.1-0.4-0.1-0.6-0.1c-0.3,0-0.6,0.2-0.9,0.5
			c-0.3,0.4-1,1.3-1.3,1.5c0,0-0.1,0.1-0.1,0.1c0,0-0.4-0.2-0.5-0.2c-2.7-1.2-4.8-4-5-4.5c0-0.1,0-0.1,0-0.1c0,0,0.1-0.1,0.1-0.2
			c0.1-0.1,0.3-0.3,0.4-0.5c0.1-0.1,0.1-0.2,0.2-0.2c0.2-0.2,0.3-0.4,0.4-0.7l0.1-0.1c0.3-0.5,0-1,0-1.1c-0.1-0.1-1.1-2.7-1.2-3
			c-0.3-0.7-0.6-1-1.1-1c0,0,0,0-0.2,0c-0.2,0-1.5,0.2-2.1,0.5c-0.6,0.4-1.6,1.6-1.6,3.7c0,1.9,1.2,3.7,1.7,4.4c0,0,0,0.1,0.1,0.1
			c2,2.9,4.5,5.1,7.1,6.1c2.4,1,3.6,1.1,4.3,1.1c0,0,0,0,0,0c0.3,0,0.5,0,0.7,0l0.1,0c0.8-0.1,2.7-1,3.1-2.2
			c0.3-0.9,0.4-1.9,0.2-2.3C33.9,27.9,33.6,27.7,33.3,27.6z"/>
		<path id="XMLID_470_" class="st1" d="M25.3,7.7c-9.4,0-17,7.6-17,16.9c0,3,0.8,6,2.3,8.5l-2.9,8.6c-0.1,0.2,0,0.3,0.1,0.5
			c0.1,0.1,0.2,0.1,0.3,0.1c0,0,0.1,0,0.1,0l9-2.9c2.5,1.3,5.2,2,8,2c9.4,0,17-7.6,17-16.9C42.3,15.3,34.7,7.7,25.3,7.7z M25.3,37.9
			c-2.6,0-5.2-0.8-7.4-2.2c-0.1,0-0.2-0.1-0.2-0.1c0,0-0.1,0-0.1,0L13,37.1l1.5-4.3c0-0.1,0-0.3-0.1-0.4c-1.7-2.3-2.6-5-2.6-7.8
			c0-7.4,6-13.4,13.5-13.4c7.4,0,13.5,6,13.5,13.4C38.8,31.9,32.7,37.9,25.3,37.9z"/>
	</g>
</g>
</svg>
